<svg width="44" height="44" viewBox="0 0 44 44" fill="none" xmlns="http://www.w3.org/2000/svg">
<path d="M36.8498 16.9033C33.5315 16.9033 32.1748 14.5566 33.8248 11.6783C34.7782 10.01 34.2098 7.8833 32.5415 6.92996L29.3698 5.11496C27.9215 4.2533 26.0515 4.76663 25.1898 6.21496L24.9882 6.5633C23.3382 9.44163 20.6248 9.44163 18.9565 6.5633L18.7548 6.21496C17.9298 4.76663 16.0598 4.2533 14.6115 5.11496L11.4398 6.92996C9.7715 7.8833 9.20317 10.0283 10.1565 11.6966C11.8248 14.5566 10.4682 16.9033 7.14984 16.9033C5.24317 16.9033 3.6665 18.4616 3.6665 20.3866V23.6133C3.6665 25.52 5.22484 27.0966 7.14984 27.0966C10.4682 27.0966 11.8248 29.4433 10.1565 32.3216C9.20317 33.99 9.7715 36.1166 11.4398 37.07L14.6115 38.885C16.0598 39.7466 17.9298 39.2333 18.7915 37.785L18.9932 37.4366C20.6432 34.5583 23.3565 34.5583 25.0248 37.4366L25.2265 37.785C26.0882 39.2333 27.9582 39.7466 29.4065 38.885L32.5782 37.07C34.2465 36.1166 34.8148 33.9716 33.8615 32.3216C32.1932 29.4433 33.5498 27.0966 36.8682 27.0966C38.7748 27.0966 40.3515 25.5383 40.3515 23.6133V20.3866C40.3332 18.48 38.7748 16.9033 36.8498 16.9033ZM21.9998 27.9583C18.7182 27.9583 16.0415 25.2816 16.0415 22C16.0415 18.7183 18.7182 16.0416 21.9998 16.0416C25.2815 16.0416 27.9582 18.7183 27.9582 22C27.9582 25.2816 25.2815 27.9583 21.9998 27.9583Z" fill="white"/>
</svg>
