<svg width="44" height="43" viewBox="0 0 44 43" fill="none" xmlns="http://www.w3.org/2000/svg">
<path d="M38.3168 17.3419L39.3984 34.7546C39.4351 35.23 39.1968 35.5469 39.0684 35.6878C38.9218 35.8462 38.6101 36.0927 38.0968 36.0927H33.0918L37.0518 17.3419H38.3168ZM40.3334 10.5635L40.3151 10.5987C40.3518 11.0212 40.3151 11.4614 40.2051 11.9016L26.6934 35.723C26.2534 37.5012 24.6034 38.7337 22.6968 38.7337H38.0968C40.4618 38.7337 42.3318 36.8146 42.1484 34.5434L40.3334 10.5635Z" fill="white"/>
<path d="M20.9918 3.94301C21.1751 3.23876 20.7168 2.51689 19.9834 2.34083C19.2501 2.18237 18.4984 2.60493 18.3151 3.30918L17.3984 6.9537H20.2218L20.9918 3.94301Z" fill="white"/>
<path d="M33.0918 3.89129C33.2568 3.16943 32.7801 2.48278 32.0284 2.32432C31.2951 2.16586 30.5618 2.62363 30.3968 3.34549L29.5718 6.99001H32.3951L33.0918 3.89129Z" fill="white"/>
<path d="M40.0035 9.38576C39.3985 7.97725 37.9685 6.97369 36.2085 6.97369H32.3952L31.3685 11.5337C31.2219 12.15 30.6535 12.5725 30.0302 12.5725C29.9385 12.5725 29.8285 12.5725 29.7369 12.5373C29.0035 12.3788 28.5269 11.6746 28.6735 10.9703L29.5719 6.95608H20.2219L19.0669 11.5337C18.9202 12.1324 18.3519 12.5373 17.7285 12.5373C17.6185 12.5373 17.5085 12.5197 17.3985 12.5021C16.6652 12.326 16.2069 11.6218 16.3902 10.8999L17.3802 6.93848H13.6585C11.8619 6.93848 10.2669 8.06528 9.7352 9.72028L2.01687 33.5769C1.2102 36.1298 3.17187 38.7356 5.9402 38.7356H30.0302C31.9369 38.7356 33.5869 37.5031 34.0269 35.7249L40.2052 11.9035C40.3152 11.4633 40.3519 11.0232 40.3152 10.6006C40.2785 10.178 40.1869 9.7555 40.0035 9.38576ZM26.9502 29.4922H12.2835C11.5319 29.4922 10.9085 28.8936 10.9085 28.1718C10.9085 27.4499 11.5319 26.8513 12.2835 26.8513H26.9502C27.7019 26.8513 28.3252 27.4499 28.3252 28.1718C28.3252 28.8936 27.7019 29.4922 26.9502 29.4922ZM28.7835 22.4497H14.1169C13.3652 22.4497 12.7419 21.8511 12.7419 21.1292C12.7419 20.4074 13.3652 19.8087 14.1169 19.8087H28.7835C29.5352 19.8087 30.1585 20.4074 30.1585 21.1292C30.1585 21.8511 29.5352 22.4497 28.7835 22.4497Z" fill="white"/>
</svg>
