<svg width="44" height="44" viewBox="0 0 44 44" fill="none" xmlns="http://www.w3.org/2000/svg">
<path d="M23.2832 30.947H24.5665C26.6749 30.947 28.3982 29.2237 28.3982 27.1154V25.832H23.2832V30.947Z" fill="white"/>
<path d="M15.6016 27.1154C15.6016 29.2237 17.3249 30.947 19.4332 30.947H20.7166V25.832H15.6016V27.1154Z" fill="white"/>
<path d="M15.6016 21.9996V23.283H20.7166V18.168H19.4332C17.3249 18.168 15.6016 19.8913 15.6016 21.9996Z" fill="white"/>
<path d="M36.7215 12.5034L26.1798 5.11509C23.3015 3.09842 18.9015 3.20842 16.1332 5.35342L6.94817 12.5218C5.0965 13.9518 3.6665 16.8851 3.6665 19.1951V31.8451C3.6665 36.5201 7.4615 40.3334 12.1182 40.3334H31.8632C36.5198 40.3334 40.3148 36.5384 40.3148 31.8634V19.4334C40.3332 16.9584 38.7382 13.9151 36.7215 12.5034ZM30.9465 27.1151C30.9465 30.6351 28.0682 33.5134 24.5482 33.5134H19.4332C15.9132 33.5134 13.0348 30.6534 13.0348 27.1151V22.0001C13.0348 18.4801 15.9132 15.6018 19.4332 15.6018H24.5482C28.0682 15.6018 30.9465 18.4618 30.9465 22.0001V27.1151Z" fill="white"/>
<path d="M24.5665 18.168H23.2832V23.283H28.3982V21.9996C28.3982 19.8913 26.6749 18.168 24.5665 18.168Z" fill="white"/>
</svg>
