<svg width="44" height="44" viewBox="0 0 44 44" fill="none" xmlns="http://www.w3.org/2000/svg">
<path d="M30.8 3.66699H26.0333C20.1667 3.66699 16.5 7.33366 16.5 13.2003V20.6253H27.9583C28.71 20.6253 29.3333 21.2487 29.3333 22.0003C29.3333 22.752 28.71 23.3753 27.9583 23.3753H16.5V30.8003C16.5 36.667 20.1667 40.3337 26.0333 40.3337H30.7817C36.6483 40.3337 40.315 36.667 40.315 30.8003V13.2003C40.3333 7.33366 36.6667 3.66699 30.8 3.66699Z" fill="white"/>
<path d="M8.36014 20.6254L12.1551 16.8304C12.4301 16.5554 12.5585 16.207 12.5585 15.8587C12.5585 15.5104 12.4301 15.1437 12.1551 14.887C11.6235 14.3554 10.7435 14.3554 10.2118 14.887L4.07014 21.0287C3.53847 21.5604 3.53847 22.4404 4.07014 22.972L10.2118 29.1137C10.7435 29.6454 11.6235 29.6454 12.1551 29.1137C12.6868 28.582 12.6868 27.702 12.1551 27.1704L8.36014 23.3754H16.5001V20.6254H8.36014Z" fill="white"/>
</svg>
