<svg width="44" height="44" viewBox="0 0 44 44" fill="none" xmlns="http://www.w3.org/2000/svg">
<path d="M30.7084 6.52699V3.66699C30.7084 2.91533 30.0851 2.29199 29.3334 2.29199C28.5818 2.29199 27.9584 2.91533 27.9584 3.66699V6.41699H16.0418V3.66699C16.0418 2.91533 15.4184 2.29199 14.6668 2.29199C13.9151 2.29199 13.2918 2.91533 13.2918 3.66699V6.52699C8.34176 6.98533 5.94009 9.93699 5.57343 14.3187C5.53676 14.8503 5.97676 15.2903 6.49009 15.2903H37.5101C38.0418 15.2903 38.4818 14.832 38.4268 14.3187C38.0601 9.93699 35.6584 6.98533 30.7084 6.52699Z" fill="white"/>
<path d="M36.6667 18.04H7.33333C6.325 18.04 5.5 18.865 5.5 19.8734V31.1667C5.5 36.6667 8.25 40.3334 14.6667 40.3334H29.3333C35.75 40.3334 38.5 36.6667 38.5 31.1667V19.8734C38.5 18.865 37.675 18.04 36.6667 18.04ZM16.885 33.385C16.7933 33.4584 16.7017 33.55 16.61 33.605C16.5 33.6784 16.39 33.7334 16.28 33.77C16.17 33.825 16.06 33.8617 15.95 33.88C15.8217 33.8984 15.7117 33.9167 15.5833 33.9167C15.345 33.9167 15.1067 33.8617 14.8867 33.77C14.6483 33.6784 14.465 33.55 14.2817 33.385C13.9517 33.0367 13.75 32.56 13.75 32.0834C13.75 31.6067 13.9517 31.13 14.2817 30.7817C14.465 30.6167 14.6483 30.4884 14.8867 30.3967C15.2167 30.25 15.5833 30.2134 15.95 30.2867C16.06 30.305 16.17 30.3417 16.28 30.3967C16.39 30.4334 16.5 30.4884 16.61 30.5617C16.7017 30.635 16.7933 30.7084 16.885 30.7817C17.215 31.13 17.4167 31.6067 17.4167 32.0834C17.4167 32.56 17.215 33.0367 16.885 33.385ZM16.885 26.9684C16.5367 27.2984 16.06 27.5 15.5833 27.5C15.1067 27.5 14.63 27.2984 14.2817 26.9684C13.9517 26.62 13.75 26.1434 13.75 25.6667C13.75 25.19 13.9517 24.7134 14.2817 24.365C14.795 23.8517 15.6017 23.6867 16.28 23.98C16.5183 24.0717 16.72 24.2 16.885 24.365C17.215 24.7134 17.4167 25.19 17.4167 25.6667C17.4167 26.1434 17.215 26.62 16.885 26.9684ZM23.3017 33.385C22.9533 33.715 22.4767 33.9167 22 33.9167C21.5233 33.9167 21.0467 33.715 20.6983 33.385C20.3683 33.0367 20.1667 32.56 20.1667 32.0834C20.1667 31.6067 20.3683 31.13 20.6983 30.7817C21.3767 30.1034 22.6233 30.1034 23.3017 30.7817C23.6317 31.13 23.8333 31.6067 23.8333 32.0834C23.8333 32.56 23.6317 33.0367 23.3017 33.385ZM23.3017 26.9684C23.21 27.0417 23.1183 27.115 23.0267 27.1884C22.9167 27.2617 22.8067 27.3167 22.6967 27.3534C22.5867 27.4084 22.4767 27.445 22.3667 27.4634C22.2383 27.4817 22.1283 27.5 22 27.5C21.5233 27.5 21.0467 27.2984 20.6983 26.9684C20.3683 26.62 20.1667 26.1434 20.1667 25.6667C20.1667 25.19 20.3683 24.7134 20.6983 24.365C20.8633 24.2 21.065 24.0717 21.3033 23.98C21.9817 23.6867 22.7883 23.8517 23.3017 24.365C23.6317 24.7134 23.8333 25.19 23.8333 25.6667C23.8333 26.1434 23.6317 26.62 23.3017 26.9684ZM29.7183 33.385C29.37 33.715 28.8933 33.9167 28.4167 33.9167C27.94 33.9167 27.4633 33.715 27.115 33.385C26.785 33.0367 26.5833 32.56 26.5833 32.0834C26.5833 31.6067 26.785 31.13 27.115 30.7817C27.7933 30.1034 29.04 30.1034 29.7183 30.7817C30.0483 31.13 30.25 31.6067 30.25 32.0834C30.25 32.56 30.0483 33.0367 29.7183 33.385ZM29.7183 26.9684C29.6267 27.0417 29.535 27.115 29.4433 27.1884C29.3333 27.2617 29.2233 27.3167 29.1133 27.3534C29.0033 27.4084 28.8933 27.445 28.7833 27.4634C28.655 27.4817 28.5267 27.5 28.4167 27.5C27.94 27.5 27.4633 27.2984 27.115 26.9684C26.785 26.62 26.5833 26.1434 26.5833 25.6667C26.5833 25.19 26.785 24.7134 27.115 24.365C27.2983 24.2 27.4817 24.0717 27.72 23.98C28.05 23.8334 28.4167 23.7967 28.7833 23.87C28.8933 23.8884 29.0033 23.925 29.1133 23.98C29.2233 24.0167 29.3333 24.0717 29.4433 24.145C29.535 24.2184 29.6267 24.2917 29.7183 24.365C30.0483 24.7134 30.25 25.19 30.25 25.6667C30.25 26.1434 30.0483 26.62 29.7183 26.9684Z" fill="white"/>
</svg>
