<svg xmlns="http://www.w3.org/2000/svg" xmlns:xlink="http://www.w3.org/1999/xlink" width="1280" zoomAndPan="magnify" viewBox="0 0 960 540.000001" height="720" preserveAspectRatio="xMidYMid meet" version="1.0"><defs><g/><clipPath id="fb74033328"><path d="M 0.789062 0.746094 L 10.851562 0.746094 L 10.851562 160.1875 L 0.789062 160.1875 Z M 0.789062 0.746094 " clip-rule="nonzero"/></clipPath><clipPath id="77f5aecbe3"><path d="M 0.789062 0.746094 L 10.851562 0.746094 L 10.851562 160.1875 L 0.789062 160.1875 Z M 0.789062 0.746094 " clip-rule="nonzero"/></clipPath><clipPath id="ae10729c56"><rect x="0" width="11" y="0" height="161"/></clipPath><clipPath id="df6e662256"><path d="M 10.851562 10.808594 L 20.914062 10.808594 L 20.914062 170.25 L 10.851562 170.25 Z M 10.851562 10.808594 " clip-rule="nonzero"/></clipPath><clipPath id="26c10bcdc5"><path d="M 0.851562 0.808594 L 10.914062 0.808594 L 10.914062 160.25 L 0.851562 160.25 Z M 0.851562 0.808594 " clip-rule="nonzero"/></clipPath><clipPath id="ef2b1a2458"><rect x="0" width="11" y="0" height="161"/></clipPath><clipPath id="57b6e39209"><path d="M 10.851562 160.191406 L 108.207031 160.191406 L 108.207031 170.253906 L 10.851562 170.253906 Z M 10.851562 160.191406 " clip-rule="nonzero"/></clipPath><clipPath id="494d33656e"><path d="M 0.851562 0.191406 L 98.207031 0.191406 L 98.207031 10.253906 L 0.851562 10.253906 Z M 0.851562 0.191406 " clip-rule="nonzero"/></clipPath><clipPath id="f596697276"><rect x="0" width="99" y="0" height="11"/></clipPath><clipPath id="8d5f475453"><path d="M 10.851562 150.128906 L 98.144531 150.128906 L 98.144531 160.191406 L 10.851562 160.191406 Z M 10.851562 150.128906 " clip-rule="nonzero"/></clipPath><clipPath id="686152d71c"><path d="M 0.851562 0.128906 L 88.144531 0.128906 L 88.144531 10.191406 L 0.851562 10.191406 Z M 0.851562 0.128906 " clip-rule="nonzero"/></clipPath><clipPath id="45f3a45dc6"><rect x="0" width="89" y="0" height="11"/></clipPath><clipPath id="1bca61ecd8"><path d="M 160.222656 10.8125 L 170.285156 10.8125 L 170.285156 170.25 L 160.222656 170.25 Z M 160.222656 10.8125 " clip-rule="nonzero"/></clipPath><clipPath id="e368654ca9"><path d="M 0.222656 0.8125 L 10.285156 0.8125 L 10.285156 160.25 L 0.222656 160.25 Z M 0.222656 0.8125 " clip-rule="nonzero"/></clipPath><clipPath id="ab9c076593"><rect x="0" width="11" y="0" height="161"/></clipPath><clipPath id="58f175e75e"><path d="M 150.164062 0.75 L 160.222656 0.75 L 160.222656 160.1875 L 150.164062 160.1875 Z M 150.164062 0.75 " clip-rule="nonzero"/></clipPath><clipPath id="b8dca94cac"><path d="M 0.164062 0.75 L 10.222656 0.75 L 10.222656 160.1875 L 0.164062 160.1875 Z M 0.164062 0.75 " clip-rule="nonzero"/></clipPath><clipPath id="d073270cb5"><rect x="0" width="11" y="0" height="161"/></clipPath><clipPath id="7f95637189"><path d="M 62.867188 0.746094 L 160.222656 0.746094 L 160.222656 10.808594 L 62.867188 10.808594 Z M 62.867188 0.746094 " clip-rule="nonzero"/></clipPath><clipPath id="315dbe0252"><path d="M 0.867188 0.746094 L 98.222656 0.746094 L 98.222656 10.808594 L 0.867188 10.808594 Z M 0.867188 0.746094 " clip-rule="nonzero"/></clipPath><clipPath id="928da88402"><rect x="0" width="99" y="0" height="11"/></clipPath><clipPath id="9cf51fa069"><path d="M 72.929688 10.808594 L 160.222656 10.808594 L 160.222656 20.871094 L 72.929688 20.871094 Z M 72.929688 10.808594 " clip-rule="nonzero"/></clipPath><clipPath id="589c377c91"><path d="M 0.929688 0.808594 L 88.222656 0.808594 L 88.222656 10.871094 L 0.929688 10.871094 Z M 0.929688 0.808594 " clip-rule="nonzero"/></clipPath><clipPath id="4bec06e392"><rect x="0" width="89" y="0" height="11"/></clipPath><clipPath id="f6ceae1ee9"><path d="M 5.820312 10.808594 L 15.882812 10.808594 L 15.882812 160.1875 L 5.820312 160.1875 Z M 5.820312 10.808594 " clip-rule="nonzero"/></clipPath><clipPath id="ee0fda172f"><path d="M 0.820312 0.808594 L 10.882812 0.808594 L 10.882812 150.1875 L 0.820312 150.1875 Z M 0.820312 0.808594 " clip-rule="nonzero"/></clipPath><clipPath id="4d8da37398"><rect x="0" width="11" y="0" height="151"/></clipPath><clipPath id="bbe881fa64"><path d="M 10.851562 155.160156 L 98.144531 155.160156 L 98.144531 165.222656 L 10.851562 165.222656 Z M 10.851562 155.160156 " clip-rule="nonzero"/></clipPath><clipPath id="eed8d90f80"><path d="M 0.851562 0.160156 L 88.144531 0.160156 L 88.144531 10.222656 L 0.851562 10.222656 Z M 0.851562 0.160156 " clip-rule="nonzero"/></clipPath><clipPath id="e8492f4a25"><rect x="0" width="89" y="0" height="11"/></clipPath><clipPath id="6582e97999"><path d="M 155.191406 10.8125 L 165.253906 10.8125 L 165.253906 160.191406 L 155.191406 160.191406 Z M 155.191406 10.8125 " clip-rule="nonzero"/></clipPath><clipPath id="837346e3fa"><path d="M 0.191406 0.8125 L 10.253906 0.8125 L 10.253906 150.191406 L 0.191406 150.191406 Z M 0.191406 0.8125 " clip-rule="nonzero"/></clipPath><clipPath id="efb3d078c9"><rect x="0" width="11" y="0" height="151"/></clipPath><clipPath id="2660f1edbe"><path d="M 72.929688 5.777344 L 160.222656 5.777344 L 160.222656 15.839844 L 72.929688 15.839844 Z M 72.929688 5.777344 " clip-rule="nonzero"/></clipPath><clipPath id="6240697233"><path d="M 0.929688 0.777344 L 88.222656 0.777344 L 88.222656 10.839844 L 0.929688 10.839844 Z M 0.929688 0.777344 " clip-rule="nonzero"/></clipPath><clipPath id="b7069f1903"><rect x="0" width="89" y="0" height="11"/></clipPath><clipPath id="e059cc142c"><path d="M 39.039062 71.59375 L 44.398438 71.59375 L 44.398438 123.601562 L 39.039062 123.601562 Z M 39.039062 71.59375 " clip-rule="nonzero"/></clipPath><clipPath id="5c6fea38af"><path d="M 0.0390625 0.59375 L 5.398438 0.59375 L 5.398438 52.601562 L 0.0390625 52.601562 Z M 0.0390625 0.59375 " clip-rule="nonzero"/></clipPath><clipPath id="25d39f1af8"><rect x="0" width="6" y="0" height="53"/></clipPath><clipPath id="6923ec94ca"><path d="M 39.035156 118.816406 L 55.089844 118.816406 L 55.089844 123.601562 L 39.035156 123.601562 Z M 39.035156 118.816406 " clip-rule="nonzero"/></clipPath><clipPath id="9802e18cba"><path d="M 0.0351562 0.816406 L 16.089844 0.816406 L 16.089844 5.601562 L 0.0351562 5.601562 Z M 0.0351562 0.816406 " clip-rule="nonzero"/></clipPath><clipPath id="251c2ba564"><rect x="0" width="17" y="0" height="6"/></clipPath><clipPath id="e3cac3dd1e"><path d="M 48.3125 123.214844 L 67.019531 123.214844 L 67.019531 128 L 48.3125 128 Z M 48.3125 123.214844 " clip-rule="nonzero"/></clipPath><clipPath id="4d3e88bf8d"><path d="M 0.3125 0.214844 L 19.019531 0.214844 L 19.019531 5 L 0.3125 5 Z M 0.3125 0.214844 " clip-rule="nonzero"/></clipPath><clipPath id="5642099cd8"><rect x="0" width="20" y="0" height="5"/></clipPath><clipPath id="6c68f2abed"><path d="M 62.617188 127.613281 L 73.933594 127.613281 L 73.933594 132.398438 L 62.617188 132.398438 Z M 62.617188 127.613281 " clip-rule="nonzero"/></clipPath><clipPath id="38ad26f53e"><path d="M 0.617188 0.613281 L 11.933594 0.613281 L 11.933594 5.398438 L 0.617188 5.398438 Z M 0.617188 0.613281 " clip-rule="nonzero"/></clipPath><clipPath id="3b59f525b6"><rect x="0" width="12" y="0" height="6"/></clipPath><clipPath id="750fa93f3c"><path d="M 69.597656 131.363281 L 77.683594 131.363281 L 77.683594 136.148438 L 69.597656 136.148438 Z M 69.597656 131.363281 " clip-rule="nonzero"/></clipPath><clipPath id="88fa484546"><path d="M 0.597656 0.363281 L 8.683594 0.363281 L 8.683594 5.148438 L 0.597656 5.148438 Z M 0.597656 0.363281 " clip-rule="nonzero"/></clipPath><clipPath id="57e6c0d69e"><rect x="0" width="9" y="0" height="6"/></clipPath><clipPath id="615429eee6"><path d="M 75.574219 135.617188 L 95.289062 135.617188 L 95.289062 139.753906 L 75.574219 139.753906 Z M 75.574219 135.617188 " clip-rule="nonzero"/></clipPath><clipPath id="f8212fdc5a"><path d="M 0.574219 0.617188 L 20.289062 0.617188 L 20.289062 4.753906 L 0.574219 4.753906 Z M 0.574219 0.617188 " clip-rule="nonzero"/></clipPath><clipPath id="c7a0634048"><rect x="0" width="21" y="0" height="5"/></clipPath><clipPath id="5570d80f0b"><path d="M 92.289062 131.363281 L 100.375 131.363281 L 100.375 136.148438 L 92.289062 136.148438 Z M 92.289062 131.363281 " clip-rule="nonzero"/></clipPath><clipPath id="3e6edbc220"><path d="M 0.289062 0.363281 L 8.375 0.363281 L 8.375 5.148438 L 0.289062 5.148438 Z M 0.289062 0.363281 " clip-rule="nonzero"/></clipPath><clipPath id="86e0e3c51b"><rect x="0" width="9" y="0" height="6"/></clipPath><clipPath id="241d293c2a"><path d="M 96.332031 127.613281 L 107.648438 127.613281 L 107.648438 132.398438 L 96.332031 132.398438 Z M 96.332031 127.613281 " clip-rule="nonzero"/></clipPath><clipPath id="2ba4ff7c93"><path d="M 0.332031 0.613281 L 11.648438 0.613281 L 11.648438 5.398438 L 0.332031 5.398438 Z M 0.332031 0.613281 " clip-rule="nonzero"/></clipPath><clipPath id="d6cb467b47"><rect x="0" width="12" y="0" height="6"/></clipPath><clipPath id="659fdadb32"><path d="M 103.535156 123.214844 L 122.242188 123.214844 L 122.242188 128 L 103.535156 128 Z M 103.535156 123.214844 " clip-rule="nonzero"/></clipPath><clipPath id="d194f183f8"><path d="M 0.535156 0.214844 L 19.242188 0.214844 L 19.242188 5 L 0.535156 5 Z M 0.535156 0.214844 " clip-rule="nonzero"/></clipPath><clipPath id="9fb0153b82"><rect x="0" width="20" y="0" height="5"/></clipPath><clipPath id="6cc9ed1e3a"><path d="M 115.980469 118.816406 L 132.035156 118.816406 L 132.035156 123.601562 L 115.980469 123.601562 Z M 115.980469 118.816406 " clip-rule="nonzero"/></clipPath><clipPath id="7e9f303351"><path d="M 0.980469 0.816406 L 17.035156 0.816406 L 17.035156 5.601562 L 0.980469 5.601562 Z M 0.980469 0.816406 " clip-rule="nonzero"/></clipPath><clipPath id="cfe35f8238"><rect x="0" width="18" y="0" height="6"/></clipPath><clipPath id="3c935c1723"><path d="M 126.679688 71.59375 L 132.039062 71.59375 L 132.039062 123.601562 L 126.679688 123.601562 Z M 126.679688 71.59375 " clip-rule="nonzero"/></clipPath><clipPath id="fa60c7323c"><path d="M 0.679688 0.59375 L 6.039062 0.59375 L 6.039062 52.601562 L 0.679688 52.601562 Z M 0.679688 0.59375 " clip-rule="nonzero"/></clipPath><clipPath id="d60b650fb2"><rect x="0" width="7" y="0" height="53"/></clipPath><clipPath id="017949da9e"><path d="M 47.226562 74.308594 L 63.28125 74.308594 L 63.28125 115.296875 L 47.226562 115.296875 Z M 47.226562 74.308594 " clip-rule="nonzero"/></clipPath><clipPath id="7609456304"><path d="M 0.226562 0.308594 L 16.28125 0.308594 L 16.28125 41.296875 L 0.226562 41.296875 Z M 0.226562 0.308594 " clip-rule="nonzero"/></clipPath><clipPath id="f5fc8f68e5"><rect x="0" width="17" y="0" height="42"/></clipPath><clipPath id="e936d91bb2"><path d="M 57.910156 114.195312 L 73.960938 114.195312 L 73.960938 118.980469 L 57.910156 118.980469 Z M 57.910156 114.195312 " clip-rule="nonzero"/></clipPath><clipPath id="367bf3fae3"><path d="M 0.910156 0.195312 L 16.960938 0.195312 L 16.960938 4.980469 L 0.910156 4.980469 Z M 0.910156 0.195312 " clip-rule="nonzero"/></clipPath><clipPath id="76bb0f6b84"><rect x="0" width="17" y="0" height="5"/></clipPath><clipPath id="f9bb89ce31"><path d="M 70.039062 79.210938 L 100.574219 79.210938 L 100.574219 123.441406 L 70.039062 123.441406 Z M 70.039062 79.210938 " clip-rule="nonzero"/></clipPath><clipPath id="958d8bb31e"><path d="M 0.0390625 0.210938 L 30.574219 0.210938 L 30.574219 44.441406 L 0.0390625 44.441406 Z M 0.0390625 0.210938 " clip-rule="nonzero"/></clipPath><clipPath id="e83b3da757"><rect x="0" width="31" y="0" height="45"/></clipPath><clipPath id="f013e64139"><path d="M 76.859375 122.21875 L 93.089844 122.21875 L 93.089844 127.003906 L 76.859375 127.003906 Z M 76.859375 122.21875 " clip-rule="nonzero"/></clipPath><clipPath id="4e364b8d83"><path d="M 0.859375 0.21875 L 17.089844 0.21875 L 17.089844 5.003906 L 0.859375 5.003906 Z M 0.859375 0.21875 " clip-rule="nonzero"/></clipPath><clipPath id="c88b3cb84d"><rect x="0" width="18" y="0" height="6"/></clipPath><clipPath id="9cdc9982bd"><path d="M 80.722656 126.023438 L 89.292969 126.023438 L 89.292969 130.808594 L 80.722656 130.808594 Z M 80.722656 126.023438 " clip-rule="nonzero"/></clipPath><clipPath id="cdfab197d3"><path d="M 0.722656 0.0234375 L 9.292969 0.0234375 L 9.292969 4.808594 L 0.722656 4.808594 Z M 0.722656 0.0234375 " clip-rule="nonzero"/></clipPath><clipPath id="693e3305b0"><rect x="0" width="10" y="0" height="5"/></clipPath><clipPath id="5d89f87edf"><path d="M 96.835938 114.195312 L 112.886719 114.195312 L 112.886719 118.980469 L 96.835938 118.980469 Z M 96.835938 114.195312 " clip-rule="nonzero"/></clipPath><clipPath id="3179dfa247"><path d="M 0.835938 0.195312 L 16.886719 0.195312 L 16.886719 4.980469 L 0.835938 4.980469 Z M 0.835938 0.195312 " clip-rule="nonzero"/></clipPath><clipPath id="6eeb236ce8"><rect x="0" width="17" y="0" height="5"/></clipPath><clipPath id="7bd83a6775"><path d="M 107.648438 74.308594 L 123.699219 74.308594 L 123.699219 115.296875 L 107.648438 115.296875 Z M 107.648438 74.308594 " clip-rule="nonzero"/></clipPath><clipPath id="f45ecc10b2"><path d="M 0.648438 0.308594 L 16.699219 0.308594 L 16.699219 41.296875 L 0.648438 41.296875 Z M 0.648438 0.308594 " clip-rule="nonzero"/></clipPath><clipPath id="f3b373ca20"><rect x="0" width="17" y="0" height="42"/></clipPath><clipPath id="3035bd4274"><path d="M 51.140625 63.882812 L 70.238281 63.882812 L 70.238281 86.019531 L 51.140625 86.019531 Z M 51.140625 63.882812 " clip-rule="nonzero"/></clipPath><clipPath id="c4295ab15a"><path d="M 0.140625 0.882812 L 19.238281 0.882812 L 19.238281 23.019531 L 0.140625 23.019531 Z M 0.140625 0.882812 " clip-rule="nonzero"/></clipPath><clipPath id="6b51fcbd6c"><rect x="0" width="20" y="0" height="24"/></clipPath><clipPath id="8ba844cd8f"><path d="M 59.824219 71.414062 L 79.042969 71.414062 L 79.042969 118.660156 L 59.824219 118.660156 Z M 59.824219 71.414062 " clip-rule="nonzero"/></clipPath><clipPath id="fd224b6a58"><path d="M 0.824219 0.414062 L 20.042969 0.414062 L 20.042969 47.660156 L 0.824219 47.660156 Z M 0.824219 0.414062 " clip-rule="nonzero"/></clipPath><clipPath id="e3c5c4920e"><rect x="0" width="21" y="0" height="48"/></clipPath><clipPath id="c8f92de0af"><path d="M 79.046875 79.214844 L 89.292969 79.214844 L 89.292969 120.167969 L 79.046875 120.167969 Z M 79.046875 79.214844 " clip-rule="nonzero"/></clipPath><clipPath id="05a1e0c80c"><path d="M 0.046875 0.214844 L 10.292969 0.214844 L 10.292969 41.167969 L 0.046875 41.167969 Z M 0.046875 0.214844 " clip-rule="nonzero"/></clipPath><clipPath id="7f0fdfde6e"><rect x="0" width="11" y="0" height="42"/></clipPath><clipPath id="b9c3a144ad"><path d="M 89.289062 71.414062 L 108.386719 71.414062 L 108.386719 118.664062 L 89.289062 118.664062 Z M 89.289062 71.414062 " clip-rule="nonzero"/></clipPath><clipPath id="6fe2e32c02"><path d="M 0.289062 0.414062 L 19.386719 0.414062 L 19.386719 47.664062 L 0.289062 47.664062 Z M 0.289062 0.414062 " clip-rule="nonzero"/></clipPath><clipPath id="d25ff0aa19"><rect x="0" width="20" y="0" height="48"/></clipPath><clipPath id="68981c271f"><path d="M 103.039062 63.882812 L 120.507812 63.882812 L 120.507812 85.757812 L 103.039062 85.757812 Z M 103.039062 63.882812 " clip-rule="nonzero"/></clipPath><clipPath id="827a139993"><path d="M 0.0390625 0.882812 L 17.507812 0.882812 L 17.507812 22.757812 L 0.0390625 22.757812 Z M 0.0390625 0.882812 " clip-rule="nonzero"/></clipPath><clipPath id="7142d893fe"><rect x="0" width="18" y="0" height="23"/></clipPath><clipPath id="63dcce2aeb"><path d="M 62.160156 92.925781 L 69.691406 92.925781 L 69.691406 100.789062 L 62.160156 100.789062 Z M 62.160156 92.925781 " clip-rule="nonzero"/></clipPath><clipPath id="de29845438"><path d="M 0.160156 0.925781 L 7.691406 0.925781 L 7.691406 8.789062 L 0.160156 8.789062 Z M 0.160156 0.925781 " clip-rule="nonzero"/></clipPath><clipPath id="c580783462"><rect x="0" width="8" y="0" height="9"/></clipPath><clipPath id="f2adc0e745"><path d="M 66.085938 97.632812 L 73.613281 97.632812 L 73.613281 104.953125 L 66.085938 104.953125 Z M 66.085938 97.632812 " clip-rule="nonzero"/></clipPath><clipPath id="a536ba2c9a"><path d="M 0.0859375 0.632812 L 7.613281 0.632812 L 7.613281 7.953125 L 0.0859375 7.953125 Z M 0.0859375 0.632812 " clip-rule="nonzero"/></clipPath><clipPath id="5f9b8bcded"><rect x="0" width="8" y="0" height="8"/></clipPath><clipPath id="ae2639a9e8"><path d="M 70.238281 101.292969 L 77.71875 101.292969 L 77.71875 108.996094 L 70.238281 108.996094 Z M 70.238281 101.292969 " clip-rule="nonzero"/></clipPath><clipPath id="b59a1dd50f"><path d="M 0.238281 0.292969 L 7.71875 0.292969 L 7.71875 7.996094 L 0.238281 7.996094 Z M 0.238281 0.292969 " clip-rule="nonzero"/></clipPath><clipPath id="9530b3aeec"><rect x="0" width="8" y="0" height="8"/></clipPath><clipPath id="c12b113091"><path d="M 74.222656 105.253906 L 85.261719 105.253906 L 85.261719 112.65625 L 74.222656 112.65625 Z M 74.222656 105.253906 " clip-rule="nonzero"/></clipPath><clipPath id="3da2185604"><path d="M 0.222656 0.253906 L 11.261719 0.253906 L 11.261719 7.65625 L 0.222656 7.65625 Z M 0.222656 0.253906 " clip-rule="nonzero"/></clipPath><clipPath id="457dda3e38"><rect x="0" width="12" y="0" height="8"/></clipPath><clipPath id="a97d7cc4e2"><path d="M 77.863281 112.503906 L 82 112.503906 L 82 116.296875 L 77.863281 116.296875 Z M 77.863281 112.503906 " clip-rule="nonzero"/></clipPath><clipPath id="f8d81e437b"><path d="M 0.863281 0.503906 L 5 0.503906 L 5 4.296875 L 0.863281 4.296875 Z M 0.863281 0.503906 " clip-rule="nonzero"/></clipPath><clipPath id="91050405f6"><rect x="0" width="5" y="0" height="5"/></clipPath><clipPath id="d249a1c331"><path d="M 81.8125 101.402344 L 89.292969 101.402344 L 89.292969 109.105469 L 81.8125 109.105469 Z M 81.8125 101.402344 " clip-rule="nonzero"/></clipPath><clipPath id="1e41488003"><path d="M 0.8125 0.402344 L 8.292969 0.402344 L 8.292969 8.105469 L 0.8125 8.105469 Z M 0.8125 0.402344 " clip-rule="nonzero"/></clipPath><clipPath id="4f31966b63"><rect x="0" width="9" y="0" height="9"/></clipPath><clipPath id="63cc011b03"><path d="M 85.867188 97.632812 L 93.394531 97.632812 L 93.394531 104.953125 L 85.867188 104.953125 Z M 85.867188 97.632812 " clip-rule="nonzero"/></clipPath><clipPath id="55f9081378"><path d="M 0.867188 0.632812 L 8.394531 0.632812 L 8.394531 7.953125 L 0.867188 7.953125 Z M 0.867188 0.632812 " clip-rule="nonzero"/></clipPath><clipPath id="091af88fa8"><rect x="0" width="9" y="0" height="8"/></clipPath><clipPath id="f20e6a8785"><path d="M 89.628906 93.195312 L 97.160156 93.195312 L 97.160156 101.121094 L 89.628906 101.121094 Z M 89.628906 93.195312 " clip-rule="nonzero"/></clipPath><clipPath id="042e6eb95b"><path d="M 0.628906 0.195312 L 8.160156 0.195312 L 8.160156 8.121094 L 0.628906 8.121094 Z M 0.628906 0.195312 " clip-rule="nonzero"/></clipPath><clipPath id="fda0d8b404"><rect x="0" width="9" y="0" height="9"/></clipPath><clipPath id="59dcb8cc77"><path d="M 93.371094 89.335938 L 100.902344 89.335938 L 100.902344 97.160156 L 93.371094 97.160156 Z M 93.371094 89.335938 " clip-rule="nonzero"/></clipPath><clipPath id="fc513a4aff"><path d="M 0.371094 0.335938 L 7.902344 0.335938 L 7.902344 8.160156 L 0.371094 8.160156 Z M 0.371094 0.335938 " clip-rule="nonzero"/></clipPath><clipPath id="6225cc84ac"><rect x="0" width="8" y="0" height="9"/></clipPath><clipPath id="3567df3470"><path d="M 97.597656 85.410156 L 104.585938 85.410156 L 104.585938 93.535156 L 97.597656 93.535156 Z M 97.597656 85.410156 " clip-rule="nonzero"/></clipPath><clipPath id="36e490faf2"><path d="M 0.597656 0.410156 L 7.585938 0.410156 L 7.585938 8.535156 L 0.597656 8.535156 Z M 0.597656 0.410156 " clip-rule="nonzero"/></clipPath><clipPath id="a9e50a47ba"><rect x="0" width="8" y="0" height="9"/></clipPath><clipPath id="4556ae3bac"><path d="M 101.402344 81.691406 L 108.390625 81.691406 L 108.390625 89.820312 L 101.402344 89.820312 Z M 101.402344 81.691406 " clip-rule="nonzero"/></clipPath><clipPath id="c0ba698c61"><path d="M 0.402344 0.691406 L 7.390625 0.691406 L 7.390625 8.820312 L 0.402344 8.820312 Z M 0.402344 0.691406 " clip-rule="nonzero"/></clipPath><clipPath id="bc9f60b8eb"><rect x="0" width="8" y="0" height="9"/></clipPath><clipPath id="df18632d7e"><path d="M 89.351562 57.074219 L 95.988281 57.074219 L 95.988281 63.714844 L 89.351562 63.714844 Z M 89.351562 57.074219 " clip-rule="nonzero"/></clipPath><clipPath id="514ecb2658"><path d="M 0.351562 0.0742188 L 6.988281 0.0742188 L 6.988281 6.714844 L 0.351562 6.714844 Z M 0.351562 0.0742188 " clip-rule="nonzero"/></clipPath><clipPath id="6a887cf253"><rect x="0" width="7" y="0" height="7"/></clipPath><clipPath id="db7a4b407c"><path d="M 75.53125 44.28125 L 82.171875 44.28125 L 82.171875 50.917969 L 75.53125 50.917969 Z M 75.53125 44.28125 " clip-rule="nonzero"/></clipPath><clipPath id="c6b6389cef"><path d="M 0.53125 0.28125 L 7.171875 0.28125 L 7.171875 6.917969 L 0.53125 6.917969 Z M 0.53125 0.28125 " clip-rule="nonzero"/></clipPath><clipPath id="d8251e0e99"><rect x="0" width="8" y="0" height="7"/></clipPath><clipPath id="9810ec468b"><path d="M 89.351562 31.246094 L 95.988281 31.246094 L 95.988281 37.882812 L 89.351562 37.882812 Z M 89.351562 31.246094 " clip-rule="nonzero"/></clipPath><clipPath id="a9090ac235"><path d="M 0.351562 0.246094 L 6.988281 0.246094 L 6.988281 6.882812 L 0.351562 6.882812 Z M 0.351562 0.246094 " clip-rule="nonzero"/></clipPath><clipPath id="fa4b76a022"><rect x="0" width="7" y="0" height="7"/></clipPath><clipPath id="0d610d4702"><rect x="0" width="171" y="0" height="171"/></clipPath><clipPath id="4185573326"><rect x="0" width="642" y="0" height="165"/></clipPath></defs><g transform="matrix(1, 0, 0, 1, 54, 184)"><g clip-path="url(#0d610d4702)"><g clip-path="url(#fb74033328)"><g transform="matrix(1, 0, 0, 1, -0.000000000000014211, 0)"><g clip-path="url(#ae10729c56)"><g clip-path="url(#77f5aecbe3)"><path fill="#1553ad" d="M 0.789062 160.1875 L 0.789062 0.765625 L 10.851562 0.765625 L 10.851562 160.1875 Z M 0.789062 160.1875 " fill-opacity="1" fill-rule="nonzero"/></g></g></g></g><g clip-path="url(#df6e662256)"><g transform="matrix(1, 0, 0, 1, 10, 10)"><g clip-path="url(#ef2b1a2458)"><g clip-path="url(#26c10bcdc5)"><path fill="#1553ad" d="M 0.851562 160.25 L 0.851562 0.824219 L 10.914062 0.824219 L 10.914062 160.25 Z M 0.851562 160.25 " fill-opacity="1" fill-rule="nonzero"/></g></g></g></g><g clip-path="url(#57b6e39209)"><g transform="matrix(1, 0, 0, 1, 10, 160)"><g clip-path="url(#f596697276)"><g clip-path="url(#494d33656e)"><path fill="#1553ad" d="M 0.851562 0.191406 L 98.210938 0.191406 L 98.210938 10.253906 L 0.851562 10.253906 Z M 0.851562 0.191406 " fill-opacity="1" fill-rule="nonzero"/></g></g></g></g><g clip-path="url(#8d5f475453)"><g transform="matrix(1, 0, 0, 1, 10, 150)"><g clip-path="url(#45f3a45dc6)"><g clip-path="url(#686152d71c)"><path fill="#1553ad" d="M 0.851562 0.128906 L 88.148438 0.128906 L 88.148438 10.191406 L 0.851562 10.191406 Z M 0.851562 0.128906 " fill-opacity="1" fill-rule="nonzero"/></g></g></g></g><g clip-path="url(#1bca61ecd8)"><g transform="matrix(1, 0, 0, 1, 160, 10)"><g clip-path="url(#ab9c076593)"><g clip-path="url(#e368654ca9)"><path fill="#faf3ff" d="M 10.285156 0.8125 L 10.285156 160.234375 L 0.222656 160.234375 L 0.222656 0.8125 Z M 10.285156 0.8125 " fill-opacity="1" fill-rule="nonzero"/></g></g></g></g><g clip-path="url(#58f175e75e)"><g transform="matrix(1, 0, 0, 1, 150, 0)"><g clip-path="url(#d073270cb5)"><g clip-path="url(#b8dca94cac)"><path fill="#faf3ff" d="M 10.222656 0.75 L 10.222656 160.171875 L 0.164062 160.171875 L 0.164062 0.75 Z M 10.222656 0.75 " fill-opacity="1" fill-rule="nonzero"/></g></g></g></g><g clip-path="url(#7f95637189)"><g transform="matrix(1, 0, 0, 1, 62, 0)"><g clip-path="url(#928da88402)"><g clip-path="url(#315dbe0252)"><path fill="#faf3ff" d="M 98.222656 10.808594 L 0.863281 10.808594 L 0.863281 0.746094 L 98.222656 0.746094 Z M 98.222656 10.808594 " fill-opacity="1" fill-rule="nonzero"/></g></g></g></g><g clip-path="url(#9cf51fa069)"><g transform="matrix(1, 0, 0, 1, 72, 10)"><g clip-path="url(#4bec06e392)"><g clip-path="url(#589c377c91)"><path fill="#faf3ff" d="M 88.222656 10.871094 L 0.925781 10.871094 L 0.925781 0.808594 L 88.222656 0.808594 Z M 88.222656 10.871094 " fill-opacity="1" fill-rule="nonzero"/></g></g></g></g><g clip-path="url(#f6ceae1ee9)"><g transform="matrix(1, 0, 0, 1, 5, 10)"><g clip-path="url(#4d8da37398)"><g clip-path="url(#ee0fda172f)"><path fill="#1553ad" d="M 0.820312 150.1875 L 0.820312 0.824219 L 10.882812 0.824219 L 10.882812 150.1875 Z M 0.820312 150.1875 " fill-opacity="1" fill-rule="nonzero"/></g></g></g></g><g clip-path="url(#bbe881fa64)"><g transform="matrix(1, 0, 0, 1, 10, 155)"><g clip-path="url(#e8492f4a25)"><g clip-path="url(#eed8d90f80)"><path fill="#1553ad" d="M 0.851562 0.160156 L 88.148438 0.160156 L 88.148438 10.222656 L 0.851562 10.222656 Z M 0.851562 0.160156 " fill-opacity="1" fill-rule="nonzero"/></g></g></g></g><g clip-path="url(#6582e97999)"><g transform="matrix(1, 0, 0, 1, 155, 10)"><g clip-path="url(#efb3d078c9)"><g clip-path="url(#837346e3fa)"><path fill="#faf3ff" d="M 10.253906 0.8125 L 10.253906 150.171875 L 0.191406 150.171875 L 0.191406 0.8125 Z M 10.253906 0.8125 " fill-opacity="1" fill-rule="nonzero"/></g></g></g></g><g clip-path="url(#2660f1edbe)"><g transform="matrix(1, 0, 0, 1, 72, 5)"><g clip-path="url(#b7069f1903)"><g clip-path="url(#6240697233)"><path fill="#faf3ff" d="M 88.222656 10.839844 L 0.925781 10.839844 L 0.925781 0.777344 L 88.222656 0.777344 Z M 88.222656 10.839844 " fill-opacity="1" fill-rule="nonzero"/></g></g></g></g><g clip-path="url(#e059cc142c)"><g transform="matrix(1, 0, 0, 1, 39, 71)"><g clip-path="url(#25d39f1af8)"><g clip-path="url(#5c6fea38af)"><path fill="#1350a7" d="M 0.0390625 0.59375 L 5.398438 0.59375 L 5.398438 52.613281 L 0.0390625 52.613281 Z M 0.0390625 0.59375 " fill-opacity="1" fill-rule="nonzero"/></g></g></g></g><g clip-path="url(#6923ec94ca)"><g transform="matrix(1, 0, 0, 1, 39, 118)"><g clip-path="url(#251c2ba564)"><g clip-path="url(#9802e18cba)"><path fill="#1350a7" d="M 16.089844 0.816406 L 16.089844 5.601562 L 0.0351562 5.601562 L 0.0351562 0.816406 Z M 16.089844 0.816406 " fill-opacity="1" fill-rule="nonzero"/></g></g></g></g><g clip-path="url(#e3cac3dd1e)"><g transform="matrix(1, 0, 0, 1, 48, 123)"><g clip-path="url(#5642099cd8)"><g clip-path="url(#4d3e88bf8d)"><path fill="#1350a7" d="M 19.019531 0.214844 L 19.019531 5 L 0.3125 5 L 0.3125 0.214844 Z M 19.019531 0.214844 " fill-opacity="1" fill-rule="nonzero"/></g></g></g></g><g clip-path="url(#6c68f2abed)"><g transform="matrix(1, 0, 0, 1, 62, 127)"><g clip-path="url(#3b59f525b6)"><g clip-path="url(#38ad26f53e)"><path fill="#1350a7" d="M 11.933594 0.613281 L 11.933594 5.398438 L 0.625 5.398438 L 0.625 0.613281 Z M 11.933594 0.613281 " fill-opacity="1" fill-rule="nonzero"/></g></g></g></g><g clip-path="url(#750fa93f3c)"><g transform="matrix(1, 0, 0, 1, 69, 131)"><g clip-path="url(#57e6c0d69e)"><g clip-path="url(#88fa484546)"><path fill="#1350a7" d="M 8.683594 0.363281 L 8.683594 5.148438 L 0.589844 5.148438 L 0.589844 0.363281 Z M 8.683594 0.363281 " fill-opacity="1" fill-rule="nonzero"/></g></g></g></g><g clip-path="url(#615429eee6)"><g transform="matrix(1, 0, 0, 1, 75, 135)"><g clip-path="url(#c7a0634048)"><g clip-path="url(#f8212fdc5a)"><path fill="#1350a7" d="M 20.289062 0.617188 L 20.289062 4.753906 L 0.578125 4.753906 L 0.578125 0.617188 Z M 20.289062 0.617188 " fill-opacity="1" fill-rule="nonzero"/></g></g></g></g><g clip-path="url(#5570d80f0b)"><g transform="matrix(1, 0, 0, 1, 92, 131)"><g clip-path="url(#86e0e3c51b)"><g clip-path="url(#3e6edbc220)"><path fill="#1350a7" d="M 8.375 0.363281 L 8.375 5.148438 L 0.28125 5.148438 L 0.28125 0.363281 Z M 8.375 0.363281 " fill-opacity="1" fill-rule="nonzero"/></g></g></g></g><g clip-path="url(#241d293c2a)"><g transform="matrix(1, 0, 0, 1, 96, 127)"><g clip-path="url(#d6cb467b47)"><g clip-path="url(#2ba4ff7c93)"><path fill="#1350a7" d="M 11.648438 0.613281 L 11.648438 5.398438 L 0.339844 5.398438 L 0.339844 0.613281 Z M 11.648438 0.613281 " fill-opacity="1" fill-rule="nonzero"/></g></g></g></g><g clip-path="url(#659fdadb32)"><g transform="matrix(1, 0, 0, 1, 103, 123)"><g clip-path="url(#9fb0153b82)"><g clip-path="url(#d194f183f8)"><path fill="#1350a7" d="M 19.242188 0.214844 L 19.242188 5 L 0.53125 5 L 0.53125 0.214844 Z M 19.242188 0.214844 " fill-opacity="1" fill-rule="nonzero"/></g></g></g></g><g clip-path="url(#6cc9ed1e3a)"><g transform="matrix(1, 0, 0, 1, 115, 118)"><g clip-path="url(#cfe35f8238)"><g clip-path="url(#7e9f303351)"><path fill="#1350a7" d="M 17.035156 0.816406 L 17.035156 5.601562 L 0.980469 5.601562 L 0.980469 0.816406 Z M 17.035156 0.816406 " fill-opacity="1" fill-rule="nonzero"/></g></g></g></g><g clip-path="url(#3c935c1723)"><g transform="matrix(1, 0, 0, 1, 126, 71)"><g clip-path="url(#d60b650fb2)"><g clip-path="url(#fa60c7323c)"><path fill="#1350a7" d="M 0.679688 0.59375 L 6.039062 0.59375 L 6.039062 52.613281 L 0.679688 52.613281 Z M 0.679688 0.59375 " fill-opacity="1" fill-rule="nonzero"/></g></g></g></g><g clip-path="url(#017949da9e)"><g transform="matrix(1, 0, 0, 1, 47, 74)"><g clip-path="url(#f5fc8f68e5)"><g clip-path="url(#7609456304)"><path fill="#faf3ff" d="M 16.28125 0.308594 L 16.28125 41.320312 L 0.226562 41.320312 L 0.226562 0.308594 Z M 16.28125 0.308594 " fill-opacity="1" fill-rule="nonzero"/></g></g></g></g><g clip-path="url(#e936d91bb2)"><g transform="matrix(1, 0, 0, 1, 57, 114)"><g clip-path="url(#76bb0f6b84)"><g clip-path="url(#367bf3fae3)"><path fill="#faf3ff" d="M 16.960938 0.195312 L 16.960938 4.980469 L 0.90625 4.980469 L 0.90625 0.195312 Z M 16.960938 0.195312 " fill-opacity="1" fill-rule="nonzero"/></g></g></g></g><g clip-path="url(#f9bb89ce31)"><g transform="matrix(1, 0, 0, 1, 70, 79)"><g clip-path="url(#e83b3da757)"><g clip-path="url(#958d8bb31e)"><path fill="#faf3ff" d="M 30.574219 0.210938 L 30.574219 44.464844 L 0.0390625 44.464844 L 0.0390625 0.210938 Z M 30.574219 0.210938 " fill-opacity="1" fill-rule="nonzero"/></g></g></g></g><g clip-path="url(#f013e64139)"><g transform="matrix(1, 0, 0, 1, 76, 122)"><g clip-path="url(#c88b3cb84d)"><g clip-path="url(#4e364b8d83)"><path fill="#faf3ff" d="M 17.089844 0.21875 L 17.089844 5.003906 L 0.851562 5.003906 L 0.851562 0.21875 Z M 17.089844 0.21875 " fill-opacity="1" fill-rule="nonzero"/></g></g></g></g><g clip-path="url(#9cdc9982bd)"><g transform="matrix(1, 0, 0, 1, 80, 126)"><g clip-path="url(#693e3305b0)"><g clip-path="url(#cdfab197d3)"><path fill="#faf3ff" d="M 9.292969 0.0234375 L 9.292969 4.808594 L 0.730469 4.808594 L 0.730469 0.0234375 Z M 9.292969 0.0234375 " fill-opacity="1" fill-rule="nonzero"/></g></g></g></g><g clip-path="url(#5d89f87edf)"><g transform="matrix(1, 0, 0, 1, 96, 114)"><g clip-path="url(#6eeb236ce8)"><g clip-path="url(#3179dfa247)"><path fill="#faf3ff" d="M 16.886719 0.195312 L 16.886719 4.980469 L 0.832031 4.980469 L 0.832031 0.195312 Z M 16.886719 0.195312 " fill-opacity="1" fill-rule="nonzero"/></g></g></g></g><g clip-path="url(#7bd83a6775)"><g transform="matrix(1, 0, 0, 1, 107, 74)"><g clip-path="url(#f3b373ca20)"><g clip-path="url(#f45ecc10b2)"><path fill="#faf3ff" d="M 16.699219 0.308594 L 16.699219 41.320312 L 0.648438 41.320312 L 0.648438 0.308594 Z M 16.699219 0.308594 " fill-opacity="1" fill-rule="nonzero"/></g></g></g></g><g clip-path="url(#3035bd4274)"><g transform="matrix(1, 0, 0, 1, 51, 63)"><g clip-path="url(#6b51fcbd6c)"><g clip-path="url(#c4295ab15a)"><path fill="#faf3ff" d="M 19.238281 0.882812 L 19.238281 23.039062 L 0.140625 23.039062 L 0.140625 0.882812 Z M 19.238281 0.882812 " fill-opacity="1" fill-rule="nonzero"/></g></g></g></g><g clip-path="url(#8ba844cd8f)"><g transform="matrix(1, 0, 0, 1, 59, 71)"><g clip-path="url(#e3c5c4920e)"><g clip-path="url(#fd224b6a58)"><path fill="#faf3ff" d="M 20.042969 0.414062 L 20.042969 47.632812 L 0.824219 47.632812 L 0.824219 0.414062 Z M 20.042969 0.414062 " fill-opacity="1" fill-rule="nonzero"/></g></g></g></g><g clip-path="url(#c8f92de0af)"><g transform="matrix(1, 0, 0, 1, 79, 79)"><g clip-path="url(#7f0fdfde6e)"><g clip-path="url(#05a1e0c80c)"><path fill="#faf3ff" d="M 10.292969 0.214844 L 10.292969 41.15625 L 0.046875 41.15625 L 0.046875 0.214844 Z M 10.292969 0.214844 " fill-opacity="1" fill-rule="nonzero"/></g></g></g></g><g clip-path="url(#b9c3a144ad)"><g transform="matrix(1, 0, 0, 1, 89, 71)"><g clip-path="url(#d25ff0aa19)"><g clip-path="url(#6fe2e32c02)"><path fill="#faf3ff" d="M 19.386719 0.414062 L 19.386719 47.636719 L 0.289062 47.636719 L 0.289062 0.414062 Z M 19.386719 0.414062 " fill-opacity="1" fill-rule="nonzero"/></g></g></g></g><g clip-path="url(#68981c271f)"><g transform="matrix(1, 0, 0, 1, 103, 63)"><g clip-path="url(#7142d893fe)"><g clip-path="url(#827a139993)"><path fill="#faf3ff" d="M 17.507812 0.882812 L 17.507812 22.785156 L 0.0390625 22.785156 L 0.0390625 0.882812 Z M 17.507812 0.882812 " fill-opacity="1" fill-rule="nonzero"/></g></g></g></g><g clip-path="url(#63dcce2aeb)"><g transform="matrix(1, 0, 0, 1, 62, 92)"><g clip-path="url(#c580783462)"><g clip-path="url(#de29845438)"><path fill="#134b9a" d="M 7.691406 0.925781 L 7.691406 8.777344 L 0.160156 8.777344 L 0.160156 0.925781 Z M 7.691406 0.925781 " fill-opacity="1" fill-rule="nonzero"/></g></g></g></g><g clip-path="url(#f2adc0e745)"><g transform="matrix(1, 0, 0, 1, 66, 97)"><g clip-path="url(#5f9b8bcded)"><g clip-path="url(#a536ba2c9a)"><path fill="#134b9a" d="M 7.613281 0.632812 L 7.613281 7.953125 L 0.09375 7.953125 L 0.09375 0.632812 Z M 7.613281 0.632812 " fill-opacity="1" fill-rule="nonzero"/></g></g></g></g><g clip-path="url(#ae2639a9e8)"><g transform="matrix(1, 0, 0, 1, 70, 101)"><g clip-path="url(#9530b3aeec)"><g clip-path="url(#b59a1dd50f)"><path fill="#134b9a" d="M 7.71875 0.292969 L 7.71875 8.003906 L 0.238281 8.003906 L 0.238281 0.292969 Z M 7.71875 0.292969 " fill-opacity="1" fill-rule="nonzero"/></g></g></g></g><g clip-path="url(#c12b113091)"><g transform="matrix(1, 0, 0, 1, 74, 105)"><g clip-path="url(#457dda3e38)"><g clip-path="url(#3da2185604)"><path fill="#134b9a" d="M 11.261719 0.253906 L 11.261719 7.65625 L 0.214844 7.65625 L 0.214844 0.253906 Z M 11.261719 0.253906 " fill-opacity="1" fill-rule="nonzero"/></g></g></g></g><g clip-path="url(#a97d7cc4e2)"><g transform="matrix(1, 0, 0, 1, 77, 112)"><g clip-path="url(#91050405f6)"><g clip-path="url(#f8d81e437b)"><path fill="#134b9a" d="M 5 0.503906 L 5 4.296875 L 0.867188 4.296875 L 0.867188 0.503906 Z M 5 0.503906 " fill-opacity="1" fill-rule="nonzero"/></g></g></g></g><g clip-path="url(#d249a1c331)"><g transform="matrix(1, 0, 0, 1, 81, 101)"><g clip-path="url(#4f31966b63)"><g clip-path="url(#1e41488003)"><path fill="#134b9a" d="M 8.292969 0.402344 L 8.292969 8.113281 L 0.8125 8.113281 L 0.8125 0.402344 Z M 8.292969 0.402344 " fill-opacity="1" fill-rule="nonzero"/></g></g></g></g><g clip-path="url(#63cc011b03)"><g transform="matrix(1, 0, 0, 1, 85, 97)"><g clip-path="url(#091af88fa8)"><g clip-path="url(#55f9081378)"><path fill="#134b9a" d="M 8.394531 0.632812 L 8.394531 7.953125 L 0.875 7.953125 L 0.875 0.632812 Z M 8.394531 0.632812 " fill-opacity="1" fill-rule="nonzero"/></g></g></g></g><g clip-path="url(#f20e6a8785)"><g transform="matrix(1, 0, 0, 1, 89, 93)"><g clip-path="url(#fda0d8b404)"><g clip-path="url(#042e6eb95b)"><path fill="#134b9a" d="M 8.160156 0.195312 L 8.160156 8.109375 L 0.628906 8.109375 L 0.628906 0.195312 Z M 8.160156 0.195312 " fill-opacity="1" fill-rule="nonzero"/></g></g></g></g><g clip-path="url(#59dcb8cc77)"><g transform="matrix(1, 0, 0, 1, 93, 89)"><g clip-path="url(#6225cc84ac)"><g clip-path="url(#fc513a4aff)"><path fill="#134b9a" d="M 7.902344 0.335938 L 7.902344 8.160156 L 0.371094 8.160156 L 0.371094 0.335938 Z M 7.902344 0.335938 " fill-opacity="1" fill-rule="nonzero"/></g></g></g></g><g clip-path="url(#3567df3470)"><g transform="matrix(1, 0, 0, 1, 97, 85)"><g clip-path="url(#a9e50a47ba)"><g clip-path="url(#36e490faf2)"><path fill="#134b9a" d="M 7.585938 0.410156 L 7.585938 8.542969 L 0.597656 8.542969 L 0.597656 0.410156 Z M 7.585938 0.410156 " fill-opacity="1" fill-rule="nonzero"/></g></g></g></g><g clip-path="url(#4556ae3bac)"><g transform="matrix(1, 0, 0, 1, 101, 81)"><g clip-path="url(#bc9f60b8eb)"><g clip-path="url(#c0ba698c61)"><path fill="#134b9a" d="M 7.390625 0.691406 L 7.390625 8.828125 L 0.402344 8.828125 L 0.402344 0.691406 Z M 7.390625 0.691406 " fill-opacity="1" fill-rule="nonzero"/></g></g></g></g><g clip-path="url(#df18632d7e)"><g transform="matrix(1, 0, 0, 1, 89, 57)"><g clip-path="url(#6a887cf253)"><g clip-path="url(#514ecb2658)"><path fill="#faf3ff" d="M 0.351562 0.0742188 L 6.988281 0.0742188 L 6.988281 6.714844 L 0.351562 6.714844 Z M 0.351562 0.0742188 " fill-opacity="1" fill-rule="nonzero"/></g></g></g></g><g clip-path="url(#db7a4b407c)"><g transform="matrix(1, 0, 0, 1, 75, 44)"><g clip-path="url(#d8251e0e99)"><g clip-path="url(#c6b6389cef)"><path fill="#faf3ff" d="M 0.53125 0.28125 L 7.171875 0.28125 L 7.171875 6.917969 L 0.53125 6.917969 Z M 0.53125 0.28125 " fill-opacity="1" fill-rule="nonzero"/></g></g></g></g><g clip-path="url(#9810ec468b)"><g transform="matrix(1, 0, 0, 1, 89, 31)"><g clip-path="url(#fa4b76a022)"><g clip-path="url(#a9090ac235)"><path fill="#faf3ff" d="M 0.351562 0.246094 L 6.988281 0.246094 L 6.988281 6.882812 L 0.351562 6.882812 Z M 0.351562 0.246094 " fill-opacity="1" fill-rule="nonzero"/></g></g></g></g></g></g><g transform="matrix(1, 0, 0, 1, 266, 186)"><g clip-path="url(#4185573326)"><g fill="#faf3ff" fill-opacity="1"><g transform="translate(0.525269, 123.2977)"><g><path d="M 27.03125 -15.3125 L 53.03125 -15.3125 L 53.03125 0 L 7.1875 0 L 7.1875 -81.46875 L 27.03125 -81.46875 Z M 27.03125 -15.3125 "/></g></g></g><g fill="#faf3ff" fill-opacity="1"><g transform="translate(55.864707, 123.2977)"><g><path d="M 68.234375 -33.421875 C 68.234375 -31.566406 68.117188 -29.632812 67.890625 -27.625 L 22.984375 -27.625 C 23.285156 -23.59375 24.578125 -20.515625 26.859375 -18.390625 C 29.140625 -16.265625 31.945312 -15.203125 35.28125 -15.203125 C 40.226562 -15.203125 43.671875 -17.289062 45.609375 -21.46875 L 66.734375 -21.46875 C 65.648438 -17.21875 63.691406 -13.390625 60.859375 -9.984375 C 58.035156 -6.578125 54.492188 -3.90625 50.234375 -1.96875 C 45.984375 -0.0390625 41.226562 0.921875 35.96875 0.921875 C 29.625 0.921875 23.976562 -0.425781 19.03125 -3.125 C 14.082031 -5.832031 10.210938 -9.703125 7.421875 -14.734375 C 4.640625 -19.765625 3.25 -25.644531 3.25 -32.375 C 3.25 -39.101562 4.617188 -44.984375 7.359375 -50.015625 C 10.109375 -55.046875 13.957031 -58.914062 18.90625 -61.625 C 23.863281 -64.332031 29.550781 -65.6875 35.96875 -65.6875 C 42.238281 -65.6875 47.8125 -64.367188 52.6875 -61.734375 C 57.5625 -59.109375 61.367188 -55.359375 64.109375 -50.484375 C 66.859375 -45.609375 68.234375 -39.921875 68.234375 -33.421875 Z M 47.921875 -38.640625 C 47.921875 -42.046875 46.757812 -44.753906 44.4375 -46.765625 C 42.125 -48.773438 39.226562 -49.78125 35.75 -49.78125 C 32.414062 -49.78125 29.609375 -48.8125 27.328125 -46.875 C 25.046875 -44.945312 23.632812 -42.203125 23.09375 -38.640625 Z M 47.921875 -38.640625 "/></g></g></g><g fill="#faf3ff" fill-opacity="1"><g transform="translate(127.330326, 123.2977)"><g><path d="M 36.328125 -18.5625 L 50.359375 -64.75 L 71.484375 -64.75 L 48.5 0 L 24.015625 0 L 1.046875 -64.75 L 22.28125 -64.75 Z M 36.328125 -18.5625 "/></g></g></g><g fill="#faf3ff" fill-opacity="1"><g transform="translate(199.956087, 123.2977)"><g><path d="M 68.234375 -33.421875 C 68.234375 -31.566406 68.117188 -29.632812 67.890625 -27.625 L 22.984375 -27.625 C 23.285156 -23.59375 24.578125 -20.515625 26.859375 -18.390625 C 29.140625 -16.265625 31.945312 -15.203125 35.28125 -15.203125 C 40.226562 -15.203125 43.671875 -17.289062 45.609375 -21.46875 L 66.734375 -21.46875 C 65.648438 -17.21875 63.691406 -13.390625 60.859375 -9.984375 C 58.035156 -6.578125 54.492188 -3.90625 50.234375 -1.96875 C 45.984375 -0.0390625 41.226562 0.921875 35.96875 0.921875 C 29.625 0.921875 23.976562 -0.425781 19.03125 -3.125 C 14.082031 -5.832031 10.210938 -9.703125 7.421875 -14.734375 C 4.640625 -19.765625 3.25 -25.644531 3.25 -32.375 C 3.25 -39.101562 4.617188 -44.984375 7.359375 -50.015625 C 10.109375 -55.046875 13.957031 -58.914062 18.90625 -61.625 C 23.863281 -64.332031 29.550781 -65.6875 35.96875 -65.6875 C 42.238281 -65.6875 47.8125 -64.367188 52.6875 -61.734375 C 57.5625 -59.109375 61.367188 -55.359375 64.109375 -50.484375 C 66.859375 -45.609375 68.234375 -39.921875 68.234375 -33.421875 Z M 47.921875 -38.640625 C 47.921875 -42.046875 46.757812 -44.753906 44.4375 -46.765625 C 42.125 -48.773438 39.226562 -49.78125 35.75 -49.78125 C 32.414062 -49.78125 29.609375 -48.8125 27.328125 -46.875 C 25.046875 -44.945312 23.632812 -42.203125 23.09375 -38.640625 Z M 47.921875 -38.640625 "/></g></g></g><g fill="#faf3ff" fill-opacity="1"><g transform="translate(271.421706, 123.2977)"><g><path d="M 27.03125 -85.875 L 27.03125 0 L 7.1875 0 L 7.1875 -85.875 Z M 27.03125 -85.875 "/></g></g></g><g fill="#faf3ff" fill-opacity="1"><g transform="translate(305.646293, 123.2977)"><g><path d="M 27.03125 -15.3125 L 53.03125 -15.3125 L 53.03125 0 L 7.1875 0 L 7.1875 -81.46875 L 27.03125 -81.46875 Z M 27.03125 -15.3125 "/></g></g></g><g fill="#faf3ff" fill-opacity="1"><g transform="translate(360.98573, 123.2977)"><g><path d="M 68.234375 -33.421875 C 68.234375 -31.566406 68.117188 -29.632812 67.890625 -27.625 L 22.984375 -27.625 C 23.285156 -23.59375 24.578125 -20.515625 26.859375 -18.390625 C 29.140625 -16.265625 31.945312 -15.203125 35.28125 -15.203125 C 40.226562 -15.203125 43.671875 -17.289062 45.609375 -21.46875 L 66.734375 -21.46875 C 65.648438 -17.21875 63.691406 -13.390625 60.859375 -9.984375 C 58.035156 -6.578125 54.492188 -3.90625 50.234375 -1.96875 C 45.984375 -0.0390625 41.226562 0.921875 35.96875 0.921875 C 29.625 0.921875 23.976562 -0.425781 19.03125 -3.125 C 14.082031 -5.832031 10.210938 -9.703125 7.421875 -14.734375 C 4.640625 -19.765625 3.25 -25.644531 3.25 -32.375 C 3.25 -39.101562 4.617188 -44.984375 7.359375 -50.015625 C 10.109375 -55.046875 13.957031 -58.914062 18.90625 -61.625 C 23.863281 -64.332031 29.550781 -65.6875 35.96875 -65.6875 C 42.238281 -65.6875 47.8125 -64.367188 52.6875 -61.734375 C 57.5625 -59.109375 61.367188 -55.359375 64.109375 -50.484375 C 66.859375 -45.609375 68.234375 -39.921875 68.234375 -33.421875 Z M 47.921875 -38.640625 C 47.921875 -42.046875 46.757812 -44.753906 44.4375 -46.765625 C 42.125 -48.773438 39.226562 -49.78125 35.75 -49.78125 C 32.414062 -49.78125 29.609375 -48.8125 27.328125 -46.875 C 25.046875 -44.945312 23.632812 -42.203125 23.09375 -38.640625 Z M 47.921875 -38.640625 "/></g></g></g><g fill="#faf3ff" fill-opacity="1"><g transform="translate(432.451349, 123.2977)"><g><path d="M 3.25 -32.5 C 3.25 -39.144531 4.503906 -44.984375 7.015625 -50.015625 C 9.535156 -55.046875 12.960938 -58.914062 17.296875 -61.625 C 21.628906 -64.332031 26.460938 -65.6875 31.796875 -65.6875 C 36.359375 -65.6875 40.359375 -64.753906 43.796875 -62.890625 C 47.242188 -61.035156 49.894531 -58.601562 51.75 -55.59375 L 51.75 -64.75 L 71.59375 -64.75 L 71.59375 0 L 51.75 0 L 51.75 -9.171875 C 49.820312 -6.148438 47.132812 -3.710938 43.6875 -1.859375 C 40.25 -0.00390625 36.25 0.921875 31.6875 0.921875 C 26.425781 0.921875 21.628906 -0.445312 17.296875 -3.1875 C 12.960938 -5.9375 9.535156 -9.84375 7.015625 -14.90625 C 4.503906 -19.976562 3.25 -25.84375 3.25 -32.5 Z M 51.75 -32.375 C 51.75 -37.320312 50.375 -41.226562 47.625 -44.09375 C 44.882812 -46.957031 41.539062 -48.390625 37.59375 -48.390625 C 33.65625 -48.390625 30.3125 -46.976562 27.5625 -44.15625 C 24.8125 -41.332031 23.4375 -37.445312 23.4375 -32.5 C 23.4375 -27.539062 24.8125 -23.609375 27.5625 -20.703125 C 30.3125 -17.804688 33.65625 -16.359375 37.59375 -16.359375 C 41.539062 -16.359375 44.882812 -17.789062 47.625 -20.65625 C 50.375 -23.519531 51.75 -27.425781 51.75 -32.375 Z M 51.75 -32.375 "/></g></g></g><g fill="#faf3ff" fill-opacity="1"><g transform="translate(511.225954, 123.2977)"><g><path d="M 27.03125 -53.96875 C 29.351562 -57.519531 32.253906 -60.320312 35.734375 -62.375 C 39.222656 -64.425781 43.09375 -65.453125 47.34375 -65.453125 L 47.34375 -44.453125 L 41.890625 -44.453125 C 36.941406 -44.453125 33.226562 -43.382812 30.75 -41.25 C 28.269531 -39.125 27.03125 -35.394531 27.03125 -30.0625 L 27.03125 0 L 7.1875 0 L 7.1875 -64.75 L 27.03125 -64.75 Z M 27.03125 -53.96875 "/></g></g></g><g fill="#faf3ff" fill-opacity="1"><g transform="translate(560.880623, 123.2977)"><g><path d="M 46.65625 -65.453125 C 54.238281 -65.453125 60.289062 -62.992188 64.8125 -58.078125 C 69.332031 -53.171875 71.59375 -46.421875 71.59375 -37.828125 L 71.59375 0 L 51.875 0 L 51.875 -35.15625 C 51.875 -39.488281 50.75 -42.851562 48.5 -45.25 C 46.257812 -47.65625 43.242188 -48.859375 39.453125 -48.859375 C 35.660156 -48.859375 32.640625 -47.65625 30.390625 -45.25 C 28.148438 -42.851562 27.03125 -39.488281 27.03125 -35.15625 L 27.03125 0 L 7.1875 0 L 7.1875 -64.75 L 27.03125 -64.75 L 27.03125 -56.171875 C 29.050781 -59.023438 31.757812 -61.285156 35.15625 -62.953125 C 38.5625 -64.617188 42.394531 -65.453125 46.65625 -65.453125 Z M 46.65625 -65.453125 "/></g></g></g></g></g></svg>