<svg xmlns="http://www.w3.org/2000/svg" xmlns:xlink="http://www.w3.org/1999/xlink" width="500" zoomAndPan="magnify" viewBox="0 0 375 374.999991" height="500" preserveAspectRatio="xMidYMid meet" version="1.0"><defs><clipPath id="9a1acbdf48"><path d="M 37.503906 37.492188 L 55.3125 37.492188 L 55.3125 319.683594 L 37.503906 319.683594 Z M 37.503906 37.492188 " clip-rule="nonzero"/></clipPath><clipPath id="cdbb5cc18d"><path d="M 0.503906 0.492188 L 18.3125 0.492188 L 18.3125 282.683594 L 0.503906 282.683594 Z M 0.503906 0.492188 " clip-rule="nonzero"/></clipPath><clipPath id="36847c75df"><rect x="0" width="19" y="0" height="283"/></clipPath><clipPath id="bc64f2ae1e"><path d="M 55.3125 55.304688 L 73.121094 55.304688 L 73.121094 337.492188 L 55.3125 337.492188 Z M 55.3125 55.304688 " clip-rule="nonzero"/></clipPath><clipPath id="40a6210bcb"><path d="M 0.3125 0.304688 L 18.121094 0.304688 L 18.121094 282.492188 L 0.3125 282.492188 Z M 0.3125 0.304688 " clip-rule="nonzero"/></clipPath><clipPath id="b245235a89"><rect x="0" width="19" y="0" height="283"/></clipPath><clipPath id="ab0367302d"><path d="M 55.308594 319.691406 L 227.617188 319.691406 L 227.617188 337.5 L 55.308594 337.5 Z M 55.308594 319.691406 " clip-rule="nonzero"/></clipPath><clipPath id="a9b0d54ceb"><path d="M 0.308594 0.691406 L 172.617188 0.691406 L 172.617188 18.5 L 0.308594 18.5 Z M 0.308594 0.691406 " clip-rule="nonzero"/></clipPath><clipPath id="79ccaeec46"><rect x="0" width="173" y="0" height="19"/></clipPath><clipPath id="9ef66e7554"><path d="M 55.308594 301.882812 L 209.808594 301.882812 L 209.808594 319.691406 L 55.308594 319.691406 Z M 55.308594 301.882812 " clip-rule="nonzero"/></clipPath><clipPath id="aad43c6b4d"><path d="M 0.308594 0.882812 L 154.808594 0.882812 L 154.808594 18.691406 L 0.308594 18.691406 Z M 0.308594 0.882812 " clip-rule="nonzero"/></clipPath><clipPath id="5400eaf44b"><rect x="0" width="155" y="0" height="19"/></clipPath><clipPath id="f3db1d0cc0"><path d="M 319.683594 55.304688 L 337.492188 55.304688 L 337.492188 337.496094 L 319.683594 337.496094 Z M 319.683594 55.304688 " clip-rule="nonzero"/></clipPath><clipPath id="bf5b8d8504"><path d="M 0.683594 0.304688 L 18.492188 0.304688 L 18.492188 282.496094 L 0.683594 282.496094 Z M 0.683594 0.304688 " clip-rule="nonzero"/></clipPath><clipPath id="d4b45f1e98"><rect x="0" width="19" y="0" height="283"/></clipPath><clipPath id="fe89ba30e6"><path d="M 301.875 37.496094 L 319.683594 37.496094 L 319.683594 319.6875 L 301.875 319.6875 Z M 301.875 37.496094 " clip-rule="nonzero"/></clipPath><clipPath id="6151597661"><path d="M 0.875 0.496094 L 18.683594 0.496094 L 18.683594 282.6875 L 0.875 282.6875 Z M 0.875 0.496094 " clip-rule="nonzero"/></clipPath><clipPath id="b683677cb9"><rect x="0" width="19" y="0" height="283"/></clipPath><clipPath id="39bb3e43e0"><path d="M 147.375 37.492188 L 319.683594 37.492188 L 319.683594 55.300781 L 147.375 55.300781 Z M 147.375 37.492188 " clip-rule="nonzero"/></clipPath><clipPath id="eac7412e72"><path d="M 0.375 0.492188 L 172.683594 0.492188 L 172.683594 18.300781 L 0.375 18.300781 Z M 0.375 0.492188 " clip-rule="nonzero"/></clipPath><clipPath id="2387bce8cd"><rect x="0" width="173" y="0" height="19"/></clipPath><clipPath id="25f760dbc6"><path d="M 165.179688 55.300781 L 319.679688 55.300781 L 319.679688 73.109375 L 165.179688 73.109375 Z M 165.179688 55.300781 " clip-rule="nonzero"/></clipPath><clipPath id="18d2198da6"><path d="M 0.179688 0.300781 L 154.679688 0.300781 L 154.679688 18.109375 L 0.179688 18.109375 Z M 0.179688 0.300781 " clip-rule="nonzero"/></clipPath><clipPath id="966c2f2884"><rect x="0" width="155" y="0" height="19"/></clipPath><clipPath id="c0f51d0f01"><path d="M 46.40625 55.300781 L 64.214844 55.300781 L 64.214844 319.683594 L 46.40625 319.683594 Z M 46.40625 55.300781 " clip-rule="nonzero"/></clipPath><clipPath id="99e46e06b3"><path d="M 0.40625 0.300781 L 18.214844 0.300781 L 18.214844 264.683594 L 0.40625 264.683594 Z M 0.40625 0.300781 " clip-rule="nonzero"/></clipPath><clipPath id="da75a30dbd"><rect x="0" width="19" y="0" height="265"/></clipPath><clipPath id="ce059b3825"><path d="M 55.308594 310.785156 L 209.808594 310.785156 L 209.808594 328.59375 L 55.308594 328.59375 Z M 55.308594 310.785156 " clip-rule="nonzero"/></clipPath><clipPath id="9b9da45081"><path d="M 0.308594 0.785156 L 154.808594 0.785156 L 154.808594 18.59375 L 0.308594 18.59375 Z M 0.308594 0.785156 " clip-rule="nonzero"/></clipPath><clipPath id="1c541514cd"><rect x="0" width="155" y="0" height="19"/></clipPath><clipPath id="be27c4c1ec"><path d="M 310.777344 55.308594 L 328.585938 55.308594 L 328.585938 319.691406 L 310.777344 319.691406 Z M 310.777344 55.308594 " clip-rule="nonzero"/></clipPath><clipPath id="1921141c84"><path d="M 0.777344 0.308594 L 18.585938 0.308594 L 18.585938 264.691406 L 0.777344 264.691406 Z M 0.777344 0.308594 " clip-rule="nonzero"/></clipPath><clipPath id="fab5c6edcd"><rect x="0" width="19" y="0" height="265"/></clipPath><clipPath id="8239e740b8"><path d="M 165.179688 46.394531 L 319.679688 46.394531 L 319.679688 64.207031 L 165.179688 64.207031 Z M 165.179688 46.394531 " clip-rule="nonzero"/></clipPath><clipPath id="599e0fcb86"><path d="M 0.179688 0.394531 L 154.679688 0.394531 L 154.679688 18.207031 L 0.179688 18.207031 Z M 0.179688 0.394531 " clip-rule="nonzero"/></clipPath><clipPath id="fcb9a36480"><rect x="0" width="155" y="0" height="19"/></clipPath><clipPath id="722fee31d5"><path d="M 105.203125 162.886719 L 114.6875 162.886719 L 114.6875 254.933594 L 105.203125 254.933594 Z M 105.203125 162.886719 " clip-rule="nonzero"/></clipPath><clipPath id="eac54a455e"><path d="M 0.203125 0.886719 L 9.6875 0.886719 L 9.6875 92.933594 L 0.203125 92.933594 Z M 0.203125 0.886719 " clip-rule="nonzero"/></clipPath><clipPath id="fbe562bbf4"><rect x="0" width="10" y="0" height="93"/></clipPath><clipPath id="e7e52d0f9f"><path d="M 105.195312 246.46875 L 133.605469 246.46875 L 133.605469 254.9375 L 105.195312 254.9375 Z M 105.195312 246.46875 " clip-rule="nonzero"/></clipPath><clipPath id="5a1299cdd4"><path d="M 0.195312 0.46875 L 28.605469 0.46875 L 28.605469 8.9375 L 0.195312 8.9375 Z M 0.195312 0.46875 " clip-rule="nonzero"/></clipPath><clipPath id="b7280f21b8"><rect x="0" width="29" y="0" height="9"/></clipPath><clipPath id="aa16c9586e"><path d="M 121.617188 254.25 L 154.726562 254.25 L 154.726562 262.71875 L 121.617188 262.71875 Z M 121.617188 254.25 " clip-rule="nonzero"/></clipPath><clipPath id="18e18a976a"><path d="M 0.617188 0.25 L 33.726562 0.25 L 33.726562 8.71875 L 0.617188 8.71875 Z M 0.617188 0.25 " clip-rule="nonzero"/></clipPath><clipPath id="4ba6bd9a0e"><rect x="0" width="34" y="0" height="9"/></clipPath><clipPath id="0a4e9e63d0"><path d="M 146.929688 262.035156 L 166.957031 262.035156 L 166.957031 270.503906 L 146.929688 270.503906 Z M 146.929688 262.035156 " clip-rule="nonzero"/></clipPath><clipPath id="086613ef6a"><path d="M 0.929688 0.0351562 L 20.957031 0.0351562 L 20.957031 8.503906 L 0.929688 8.503906 Z M 0.929688 0.0351562 " clip-rule="nonzero"/></clipPath><clipPath id="7664f197ad"><rect x="0" width="21" y="0" height="9"/></clipPath><clipPath id="df93491375"><path d="M 159.285156 268.675781 L 173.597656 268.675781 L 173.597656 277.140625 L 159.285156 277.140625 Z M 159.285156 268.675781 " clip-rule="nonzero"/></clipPath><clipPath id="f8cdbf191d"><path d="M 0.285156 0.675781 L 14.597656 0.675781 L 14.597656 9.140625 L 0.285156 9.140625 Z M 0.285156 0.675781 " clip-rule="nonzero"/></clipPath><clipPath id="0a6a9efe6f"><rect x="0" width="15" y="0" height="10"/></clipPath><clipPath id="7180f391cf"><path d="M 169.867188 276.199219 L 204.753906 276.199219 L 204.753906 283.523438 L 169.867188 283.523438 Z M 169.867188 276.199219 " clip-rule="nonzero"/></clipPath><clipPath id="09240d0c6a"><path d="M 0.867188 0.199219 L 35.753906 0.199219 L 35.753906 7.523438 L 0.867188 7.523438 Z M 0.867188 0.199219 " clip-rule="nonzero"/></clipPath><clipPath id="2eab7bf0aa"><rect x="0" width="36" y="0" height="8"/></clipPath><clipPath id="a857247318"><path d="M 199.445312 268.675781 L 213.757812 268.675781 L 213.757812 277.140625 L 199.445312 277.140625 Z M 199.445312 268.675781 " clip-rule="nonzero"/></clipPath><clipPath id="806f9bd757"><path d="M 0.445312 0.675781 L 14.757812 0.675781 L 14.757812 9.140625 L 0.445312 9.140625 Z M 0.445312 0.675781 " clip-rule="nonzero"/></clipPath><clipPath id="e71cc79df0"><rect x="0" width="15" y="0" height="10"/></clipPath><clipPath id="934471233d"><path d="M 206.601562 262.035156 L 226.628906 262.035156 L 226.628906 270.503906 L 206.601562 270.503906 Z M 206.601562 262.035156 " clip-rule="nonzero"/></clipPath><clipPath id="bf9c022355"><path d="M 0.601562 0.0351562 L 20.628906 0.0351562 L 20.628906 8.503906 L 0.601562 8.503906 Z M 0.601562 0.0351562 " clip-rule="nonzero"/></clipPath><clipPath id="cac6d83137"><rect x="0" width="21" y="0" height="9"/></clipPath><clipPath id="d12f50bb20"><path d="M 219.347656 254.25 L 252.460938 254.25 L 252.460938 262.71875 L 219.347656 262.71875 Z M 219.347656 254.25 " clip-rule="nonzero"/></clipPath><clipPath id="4f1b18223b"><path d="M 0.347656 0.25 L 33.460938 0.25 L 33.460938 8.71875 L 0.347656 8.71875 Z M 0.347656 0.25 " clip-rule="nonzero"/></clipPath><clipPath id="e3ae4d114b"><rect x="0" width="34" y="0" height="9"/></clipPath><clipPath id="dca478c19c"><path d="M 241.382812 246.46875 L 269.792969 246.46875 L 269.792969 254.9375 L 241.382812 254.9375 Z M 241.382812 246.46875 " clip-rule="nonzero"/></clipPath><clipPath id="6d00d565b8"><path d="M 0.382812 0.46875 L 28.792969 0.46875 L 28.792969 8.9375 L 0.382812 8.9375 Z M 0.382812 0.46875 " clip-rule="nonzero"/></clipPath><clipPath id="981c928c29"><rect x="0" width="29" y="0" height="9"/></clipPath><clipPath id="745c4c8ece"><path d="M 260.3125 162.886719 L 269.796875 162.886719 L 269.796875 254.933594 L 260.3125 254.933594 Z M 260.3125 162.886719 " clip-rule="nonzero"/></clipPath><clipPath id="03ca82cb86"><path d="M 0.3125 0.886719 L 9.796875 0.886719 L 9.796875 92.933594 L 0.3125 92.933594 Z M 0.3125 0.886719 " clip-rule="nonzero"/></clipPath><clipPath id="29445f388f"><rect x="0" width="10" y="0" height="93"/></clipPath><clipPath id="90215e1c17"><path d="M 119.695312 167.691406 L 148.105469 167.691406 L 148.105469 240.238281 L 119.695312 240.238281 Z M 119.695312 167.691406 " clip-rule="nonzero"/></clipPath><clipPath id="bd2f99e33f"><path d="M 0.695312 0.691406 L 29.105469 0.691406 L 29.105469 73.238281 L 0.695312 73.238281 Z M 0.695312 0.691406 " clip-rule="nonzero"/></clipPath><clipPath id="b62af63edf"><rect x="0" width="30" y="0" height="74"/></clipPath><clipPath id="2d32f77340"><path d="M 138.597656 238.285156 L 167.011719 238.285156 L 167.011719 246.753906 L 138.597656 246.753906 Z M 138.597656 238.285156 " clip-rule="nonzero"/></clipPath><clipPath id="f6c5f83387"><path d="M 0.597656 0.285156 L 29.011719 0.285156 L 29.011719 8.753906 L 0.597656 8.753906 Z M 0.597656 0.285156 " clip-rule="nonzero"/></clipPath><clipPath id="5b59f10ed3"><rect x="0" width="30" y="0" height="9"/></clipPath><clipPath id="0284da2214"><path d="M 160.070312 176.371094 L 214.113281 176.371094 L 214.113281 254.652344 L 160.070312 254.652344 Z M 160.070312 176.371094 " clip-rule="nonzero"/></clipPath><clipPath id="1a2aef6f7e"><path d="M 0.0703125 0.371094 L 54.113281 0.371094 L 54.113281 78.652344 L 0.0703125 78.652344 Z M 0.0703125 0.371094 " clip-rule="nonzero"/></clipPath><clipPath id="01b200b05c"><rect x="0" width="55" y="0" height="79"/></clipPath><clipPath id="8e14ebba6a"><path d="M 172.136719 252.488281 L 200.867188 252.488281 L 200.867188 260.957031 L 172.136719 260.957031 Z M 172.136719 252.488281 " clip-rule="nonzero"/></clipPath><clipPath id="183fa80d4f"><path d="M 0.136719 0.488281 L 28.867188 0.488281 L 28.867188 8.957031 L 0.136719 8.957031 Z M 0.136719 0.488281 " clip-rule="nonzero"/></clipPath><clipPath id="f685b8a755"><rect x="0" width="29" y="0" height="9"/></clipPath><clipPath id="1d6e068841"><path d="M 178.976562 259.222656 L 194.140625 259.222656 L 194.140625 267.691406 L 178.976562 267.691406 Z M 178.976562 259.222656 " clip-rule="nonzero"/></clipPath><clipPath id="6591b64ed5"><path d="M 0.976562 0.222656 L 16.140625 0.222656 L 16.140625 8.691406 L 0.976562 8.691406 Z M 0.976562 0.222656 " clip-rule="nonzero"/></clipPath><clipPath id="6568e437e8"><rect x="0" width="17" y="0" height="9"/></clipPath><clipPath id="5a061d27e2"><path d="M 207.492188 238.285156 L 235.90625 238.285156 L 235.90625 246.753906 L 207.492188 246.753906 Z M 207.492188 238.285156 " clip-rule="nonzero"/></clipPath><clipPath id="5d20f308cc"><path d="M 0.492188 0.285156 L 28.90625 0.285156 L 28.90625 8.753906 L 0.492188 8.753906 Z M 0.492188 0.285156 " clip-rule="nonzero"/></clipPath><clipPath id="2f71f50434"><rect x="0" width="29" y="0" height="9"/></clipPath><clipPath id="0d8b276db9"><path d="M 226.628906 167.691406 L 255.039062 167.691406 L 255.039062 240.238281 L 226.628906 240.238281 Z M 226.628906 167.691406 " clip-rule="nonzero"/></clipPath><clipPath id="c214da6e9d"><path d="M 0.628906 0.691406 L 29.039062 0.691406 L 29.039062 73.238281 L 0.628906 73.238281 Z M 0.628906 0.691406 " clip-rule="nonzero"/></clipPath><clipPath id="0ae958c07f"><rect x="0" width="30" y="0" height="74"/></clipPath><clipPath id="18ca4cd130"><path d="M 126.621094 149.242188 L 160.421875 149.242188 L 160.421875 188.417969 L 126.621094 188.417969 Z M 126.621094 149.242188 " clip-rule="nonzero"/></clipPath><clipPath id="74f8500909"><path d="M 0.621094 0.242188 L 34.421875 0.242188 L 34.421875 39.417969 L 0.621094 39.417969 Z M 0.621094 0.242188 " clip-rule="nonzero"/></clipPath><clipPath id="60b33e6b9c"><rect x="0" width="35" y="0" height="40"/></clipPath><clipPath id="26a992c951"><path d="M 141.992188 162.566406 L 176.003906 162.566406 L 176.003906 246.191406 L 141.992188 246.191406 Z M 141.992188 162.566406 " clip-rule="nonzero"/></clipPath><clipPath id="18abb401af"><path d="M 0.992188 0.566406 L 35.003906 0.566406 L 35.003906 84.191406 L 0.992188 84.191406 Z M 0.992188 0.566406 " clip-rule="nonzero"/></clipPath><clipPath id="bb9b237299"><rect x="0" width="36" y="0" height="85"/></clipPath><clipPath id="7a2c46041e"><path d="M 176.007812 176.371094 L 194.144531 176.371094 L 194.144531 248.855469 L 176.007812 248.855469 Z M 176.007812 176.371094 " clip-rule="nonzero"/></clipPath><clipPath id="5a9a44a139"><path d="M 0.0078125 0.371094 L 18.144531 0.371094 L 18.144531 72.855469 L 0.0078125 72.855469 Z M 0.0078125 0.371094 " clip-rule="nonzero"/></clipPath><clipPath id="6fdd01394e"><rect x="0" width="19" y="0" height="73"/></clipPath><clipPath id="296352ca5f"><path d="M 194.140625 162.570312 L 227.941406 162.570312 L 227.941406 246.191406 L 194.140625 246.191406 Z M 194.140625 162.570312 " clip-rule="nonzero"/></clipPath><clipPath id="b389cbd7e6"><path d="M 0.140625 0.570312 L 33.941406 0.570312 L 33.941406 84.191406 L 0.140625 84.191406 Z M 0.140625 0.570312 " clip-rule="nonzero"/></clipPath><clipPath id="fefd4879e6"><rect x="0" width="34" y="0" height="85"/></clipPath><clipPath id="7e1145fa4f"><path d="M 218.472656 149.238281 L 249.386719 149.238281 L 249.386719 187.953125 L 218.472656 187.953125 Z M 218.472656 149.238281 " clip-rule="nonzero"/></clipPath><clipPath id="42b95a2512"><path d="M 0.472656 0.238281 L 31.386719 0.238281 L 31.386719 38.953125 L 0.472656 38.953125 Z M 0.472656 0.238281 " clip-rule="nonzero"/></clipPath><clipPath id="0c11b29879"><rect x="0" width="32" y="0" height="39"/></clipPath><clipPath id="526a62d2c9"><path d="M 146.125 200.640625 L 159.453125 200.640625 L 159.453125 214.554688 L 146.125 214.554688 Z M 146.125 200.640625 " clip-rule="nonzero"/></clipPath><clipPath id="d2432bbb1d"><path d="M 0.125 0.640625 L 13.453125 0.640625 L 13.453125 14.554688 L 0.125 14.554688 Z M 0.125 0.640625 " clip-rule="nonzero"/></clipPath><clipPath id="5ab6e35b67"><rect x="0" width="14" y="0" height="15"/></clipPath><clipPath id="86f9c78461"><path d="M 153.066406 208.972656 L 166.394531 208.972656 L 166.394531 221.925781 L 153.066406 221.925781 Z M 153.066406 208.972656 " clip-rule="nonzero"/></clipPath><clipPath id="4f22386ceb"><path d="M 0.0664062 0.972656 L 13.394531 0.972656 L 13.394531 13.925781 L 0.0664062 13.925781 Z M 0.0664062 0.972656 " clip-rule="nonzero"/></clipPath><clipPath id="4792f4757d"><rect x="0" width="14" y="0" height="14"/></clipPath><clipPath id="18cf01b71a"><path d="M 160.421875 215.445312 L 173.65625 215.445312 L 173.65625 229.082031 L 160.421875 229.082031 Z M 160.421875 215.445312 " clip-rule="nonzero"/></clipPath><clipPath id="8b85429236"><path d="M 0.421875 0.445312 L 13.65625 0.445312 L 13.65625 14.082031 L 0.421875 14.082031 Z M 0.421875 0.445312 " clip-rule="nonzero"/></clipPath><clipPath id="61e48a2235"><rect x="0" width="14" y="0" height="15"/></clipPath><clipPath id="46f00e4d9e"><path d="M 167.472656 222.460938 L 187.007812 222.460938 L 187.007812 235.5625 L 167.472656 235.5625 Z M 167.472656 222.460938 " clip-rule="nonzero"/></clipPath><clipPath id="ad22f2223a"><path d="M 0.472656 0.460938 L 20.007812 0.460938 L 20.007812 13.5625 L 0.472656 13.5625 Z M 0.472656 0.460938 " clip-rule="nonzero"/></clipPath><clipPath id="d71ed82935"><rect x="0" width="21" y="0" height="14"/></clipPath><clipPath id="071b28ce2b"><path d="M 173.914062 235.292969 L 181.238281 235.292969 L 181.238281 242.003906 L 173.914062 242.003906 Z M 173.914062 235.292969 " clip-rule="nonzero"/></clipPath><clipPath id="8a9fe1344f"><path d="M 0.914062 0.292969 L 8.238281 0.292969 L 8.238281 7.003906 L 0.914062 7.003906 Z M 0.914062 0.292969 " clip-rule="nonzero"/></clipPath><clipPath id="3dac2d0b9f"><rect x="0" width="9" y="0" height="8"/></clipPath><clipPath id="263f053312"><path d="M 180.90625 215.640625 L 194.140625 215.640625 L 194.140625 229.273438 L 180.90625 229.273438 Z M 180.90625 215.640625 " clip-rule="nonzero"/></clipPath><clipPath id="be3efb01ed"><path d="M 0.90625 0.640625 L 14.140625 0.640625 L 14.140625 14.273438 L 0.90625 14.273438 Z M 0.90625 0.640625 " clip-rule="nonzero"/></clipPath><clipPath id="6e6931c532"><rect x="0" width="15" y="0" height="15"/></clipPath><clipPath id="39e4fdfb25"><path d="M 188.078125 208.972656 L 201.40625 208.972656 L 201.40625 221.925781 L 188.078125 221.925781 Z M 188.078125 208.972656 " clip-rule="nonzero"/></clipPath><clipPath id="0b26d33225"><path d="M 0.078125 0.972656 L 13.40625 0.972656 L 13.40625 13.925781 L 0.078125 13.925781 Z M 0.078125 0.972656 " clip-rule="nonzero"/></clipPath><clipPath id="09384a3068"><rect x="0" width="14" y="0" height="14"/></clipPath><clipPath id="dfd1f588c2"><path d="M 194.742188 201.121094 L 208.066406 201.121094 L 208.066406 215.144531 L 194.742188 215.144531 Z M 194.742188 201.121094 " clip-rule="nonzero"/></clipPath><clipPath id="ed0307b27e"><path d="M 0.742188 0.121094 L 14.066406 0.121094 L 14.066406 14.144531 L 0.742188 14.144531 Z M 0.742188 0.121094 " clip-rule="nonzero"/></clipPath><clipPath id="38a8531ee3"><rect x="0" width="15" y="0" height="15"/></clipPath><clipPath id="53897ab34a"><path d="M 201.363281 194.285156 L 214.691406 194.285156 L 214.691406 208.132812 L 201.363281 208.132812 Z M 201.363281 194.285156 " clip-rule="nonzero"/></clipPath><clipPath id="08e62afe79"><path d="M 0.363281 0.285156 L 13.691406 0.285156 L 13.691406 14.132812 L 0.363281 14.132812 Z M 0.363281 0.285156 " clip-rule="nonzero"/></clipPath><clipPath id="af61824d18"><rect x="0" width="14" y="0" height="15"/></clipPath><clipPath id="bc70c19c4d"><path d="M 208.84375 187.339844 L 221.207031 187.339844 L 221.207031 201.722656 L 208.84375 201.722656 Z M 208.84375 187.339844 " clip-rule="nonzero"/></clipPath><clipPath id="4b9afcd953"><path d="M 0.84375 0.339844 L 13.207031 0.339844 L 13.207031 14.722656 L 0.84375 14.722656 Z M 0.84375 0.339844 " clip-rule="nonzero"/></clipPath><clipPath id="b443cac1dc"><rect x="0" width="14" y="0" height="15"/></clipPath><clipPath id="54776e8ceb"><path d="M 215.578125 180.761719 L 227.945312 180.761719 L 227.945312 195.140625 L 215.578125 195.140625 Z M 215.578125 180.761719 " clip-rule="nonzero"/></clipPath><clipPath id="92a707fbb2"><path d="M 0.578125 0.761719 L 12.945312 0.761719 L 12.945312 15.140625 L 0.578125 15.140625 Z M 0.578125 0.761719 " clip-rule="nonzero"/></clipPath><clipPath id="cc102bf9e9"><rect x="0" width="13" y="0" height="16"/></clipPath><clipPath id="a6b9cff142"><path d="M 194.25 137.191406 L 205.996094 137.191406 L 205.996094 148.9375 L 194.25 148.9375 Z M 194.25 137.191406 " clip-rule="nonzero"/></clipPath><clipPath id="180643778d"><path d="M 0.25 0.191406 L 11.996094 0.191406 L 11.996094 11.9375 L 0.25 11.9375 Z M 0.25 0.191406 " clip-rule="nonzero"/></clipPath><clipPath id="14f16ed57a"><rect x="0" width="12" y="0" height="12"/></clipPath><clipPath id="26dd8a965c"><path d="M 169.789062 114.546875 L 181.539062 114.546875 L 181.539062 126.296875 L 169.789062 126.296875 Z M 169.789062 114.546875 " clip-rule="nonzero"/></clipPath><clipPath id="bd6f9bc5d7"><path d="M 0.789062 0.546875 L 12.539062 0.546875 L 12.539062 12.296875 L 0.789062 12.296875 Z M 0.789062 0.546875 " clip-rule="nonzero"/></clipPath><clipPath id="57aac492b5"><rect x="0" width="13" y="0" height="13"/></clipPath><clipPath id="bd74140a84"><path d="M 194.25 91.472656 L 205.996094 91.472656 L 205.996094 103.222656 L 194.25 103.222656 Z M 194.25 91.472656 " clip-rule="nonzero"/></clipPath><clipPath id="31d799ac78"><path d="M 0.25 0.472656 L 11.996094 0.472656 L 11.996094 12.222656 L 0.25 12.222656 Z M 0.25 0.472656 " clip-rule="nonzero"/></clipPath><clipPath id="e220569731"><rect x="0" width="12" y="0" height="13"/></clipPath></defs><rect x="-37.5" width="450" fill="#ffffff" y="-37.499999" height="449.999989" fill-opacity="1"/><rect x="-37.5" width="450" fill="#1b0d34" y="-37.499999" height="449.999989" fill-opacity="1"/><g clip-path="url(#9a1acbdf48)"><g transform="matrix(1, 0, 0, 1, 37, 37)"><g clip-path="url(#36847c75df)"><g clip-path="url(#cdbb5cc18d)"><path fill="#1553ad" d="M 0.503906 282.683594 L 0.503906 0.523438 L 18.3125 0.523438 L 18.3125 282.683594 Z M 0.503906 282.683594 " fill-opacity="1" fill-rule="nonzero"/></g></g></g></g><g clip-path="url(#bc64f2ae1e)"><g transform="matrix(1, 0, 0, 1, 55, 55)"><g clip-path="url(#b245235a89)"><g clip-path="url(#40a6210bcb)"><path fill="#1553ad" d="M 0.3125 282.492188 L 0.3125 0.332031 L 18.121094 0.332031 L 18.121094 282.492188 Z M 0.3125 282.492188 " fill-opacity="1" fill-rule="nonzero"/></g></g></g></g><g clip-path="url(#ab0367302d)"><g transform="matrix(1, 0, 0, 1, 55, 319)"><g clip-path="url(#79ccaeec46)"><g clip-path="url(#a9b0d54ceb)"><path fill="#1553ad" d="M 0.308594 0.691406 L 172.625 0.691406 L 172.625 18.5 L 0.308594 18.5 Z M 0.308594 0.691406 " fill-opacity="1" fill-rule="nonzero"/></g></g></g></g><g clip-path="url(#9ef66e7554)"><g transform="matrix(1, 0, 0, 1, 55, 301)"><g clip-path="url(#5400eaf44b)"><g clip-path="url(#aad43c6b4d)"><path fill="#1553ad" d="M 0.308594 0.882812 L 154.816406 0.882812 L 154.816406 18.691406 L 0.308594 18.691406 Z M 0.308594 0.882812 " fill-opacity="1" fill-rule="nonzero"/></g></g></g></g><g clip-path="url(#f3db1d0cc0)"><g transform="matrix(1, 0, 0, 1, 319, 55)"><g clip-path="url(#d4b45f1e98)"><g clip-path="url(#bf5b8d8504)"><path fill="#faf3ff" d="M 18.492188 0.304688 L 18.492188 282.46875 L 0.683594 282.46875 L 0.683594 0.304688 Z M 18.492188 0.304688 " fill-opacity="1" fill-rule="nonzero"/></g></g></g></g><g clip-path="url(#fe89ba30e6)"><g transform="matrix(1, 0, 0, 1, 301, 37)"><g clip-path="url(#b683677cb9)"><g clip-path="url(#6151597661)"><path fill="#faf3ff" d="M 18.683594 0.496094 L 18.683594 282.65625 L 0.875 282.65625 L 0.875 0.496094 Z M 18.683594 0.496094 " fill-opacity="1" fill-rule="nonzero"/></g></g></g></g><g clip-path="url(#39bb3e43e0)"><g transform="matrix(1, 0, 0, 1, 147, 37)"><g clip-path="url(#2387bce8cd)"><g clip-path="url(#eac7412e72)"><path fill="#faf3ff" d="M 172.683594 18.300781 L 0.367188 18.300781 L 0.367188 0.492188 L 172.683594 0.492188 Z M 172.683594 18.300781 " fill-opacity="1" fill-rule="nonzero"/></g></g></g></g><g clip-path="url(#25f760dbc6)"><g transform="matrix(1, 0, 0, 1, 165, 55)"><g clip-path="url(#966c2f2884)"><g clip-path="url(#18d2198da6)"><path fill="#faf3ff" d="M 154.679688 18.109375 L 0.175781 18.109375 L 0.175781 0.300781 L 154.679688 0.300781 Z M 154.679688 18.109375 " fill-opacity="1" fill-rule="nonzero"/></g></g></g></g><g clip-path="url(#c0f51d0f01)"><g transform="matrix(1, 0, 0, 1, 46, 55)"><g clip-path="url(#da75a30dbd)"><g clip-path="url(#99e46e06b3)"><path fill="#1553ad" d="M 0.40625 264.683594 L 0.40625 0.332031 L 18.214844 0.332031 L 18.214844 264.683594 Z M 0.40625 264.683594 " fill-opacity="1" fill-rule="nonzero"/></g></g></g></g><g clip-path="url(#ce059b3825)"><g transform="matrix(1, 0, 0, 1, 55, 310)"><g clip-path="url(#1c541514cd)"><g clip-path="url(#9b9da45081)"><path fill="#1553ad" d="M 0.308594 0.785156 L 154.816406 0.785156 L 154.816406 18.59375 L 0.308594 18.59375 Z M 0.308594 0.785156 " fill-opacity="1" fill-rule="nonzero"/></g></g></g></g><g clip-path="url(#be27c4c1ec)"><g transform="matrix(1, 0, 0, 1, 310, 55)"><g clip-path="url(#fab5c6edcd)"><g clip-path="url(#1921141c84)"><path fill="#faf3ff" d="M 18.585938 0.308594 L 18.585938 264.660156 L 0.777344 264.660156 L 0.777344 0.308594 Z M 18.585938 0.308594 " fill-opacity="1" fill-rule="nonzero"/></g></g></g></g><g clip-path="url(#8239e740b8)"><g transform="matrix(1, 0, 0, 1, 165, 46)"><g clip-path="url(#fcb9a36480)"><g clip-path="url(#599e0fcb86)"><path fill="#faf3ff" d="M 154.679688 18.207031 L 0.175781 18.207031 L 0.175781 0.394531 L 154.679688 0.394531 Z M 154.679688 18.207031 " fill-opacity="1" fill-rule="nonzero"/></g></g></g></g><g clip-path="url(#722fee31d5)"><g transform="matrix(1, 0, 0, 1, 105, 162)"><g clip-path="url(#fbe562bbf4)"><g clip-path="url(#eac54a455e)"><path fill="#1350a7" d="M 0.203125 0.886719 L 9.6875 0.886719 L 9.6875 92.953125 L 0.203125 92.953125 Z M 0.203125 0.886719 " fill-opacity="1" fill-rule="nonzero"/></g></g></g></g><g clip-path="url(#e7e52d0f9f)"><g transform="matrix(1, 0, 0, 1, 105, 246)"><g clip-path="url(#b7280f21b8)"><g clip-path="url(#5a1299cdd4)"><path fill="#1350a7" d="M 28.605469 0.46875 L 28.605469 8.9375 L 0.191406 8.9375 L 0.191406 0.46875 Z M 28.605469 0.46875 " fill-opacity="1" fill-rule="nonzero"/></g></g></g></g><g clip-path="url(#aa16c9586e)"><g transform="matrix(1, 0, 0, 1, 121, 254)"><g clip-path="url(#4ba6bd9a0e)"><g clip-path="url(#18e18a976a)"><path fill="#1350a7" d="M 33.726562 0.25 L 33.726562 8.71875 L 0.613281 8.71875 L 0.613281 0.25 Z M 33.726562 0.25 " fill-opacity="1" fill-rule="nonzero"/></g></g></g></g><g clip-path="url(#0a4e9e63d0)"><g transform="matrix(1, 0, 0, 1, 146, 262)"><g clip-path="url(#7664f197ad)"><g clip-path="url(#086613ef6a)"><path fill="#1350a7" d="M 20.957031 0.0351562 L 20.957031 8.503906 L 0.945312 8.503906 L 0.945312 0.0351562 Z M 20.957031 0.0351562 " fill-opacity="1" fill-rule="nonzero"/></g></g></g></g><g clip-path="url(#df93491375)"><g transform="matrix(1, 0, 0, 1, 159, 268)"><g clip-path="url(#0a6a9efe6f)"><g clip-path="url(#f8cdbf191d)"><path fill="#1350a7" d="M 14.597656 0.675781 L 14.597656 9.140625 L 0.273438 9.140625 L 0.273438 0.675781 Z M 14.597656 0.675781 " fill-opacity="1" fill-rule="nonzero"/></g></g></g></g><g clip-path="url(#7180f391cf)"><g transform="matrix(1, 0, 0, 1, 169, 276)"><g clip-path="url(#2eab7bf0aa)"><g clip-path="url(#09240d0c6a)"><path fill="#1350a7" d="M 35.753906 0.199219 L 35.753906 7.523438 L 0.875 7.523438 L 0.875 0.199219 Z M 35.753906 0.199219 " fill-opacity="1" fill-rule="nonzero"/></g></g></g></g><g clip-path="url(#a857247318)"><g transform="matrix(1, 0, 0, 1, 199, 268)"><g clip-path="url(#e71cc79df0)"><g clip-path="url(#806f9bd757)"><path fill="#1350a7" d="M 14.757812 0.675781 L 14.757812 9.140625 L 0.433594 9.140625 L 0.433594 0.675781 Z M 14.757812 0.675781 " fill-opacity="1" fill-rule="nonzero"/></g></g></g></g><g clip-path="url(#934471233d)"><g transform="matrix(1, 0, 0, 1, 206, 262)"><g clip-path="url(#cac6d83137)"><g clip-path="url(#bf9c022355)"><path fill="#1350a7" d="M 20.628906 0.0351562 L 20.628906 8.503906 L 0.617188 8.503906 L 0.617188 0.0351562 Z M 20.628906 0.0351562 " fill-opacity="1" fill-rule="nonzero"/></g></g></g></g><g clip-path="url(#d12f50bb20)"><g transform="matrix(1, 0, 0, 1, 219, 254)"><g clip-path="url(#e3ae4d114b)"><g clip-path="url(#4f1b18223b)"><path fill="#1350a7" d="M 33.460938 0.25 L 33.460938 8.71875 L 0.347656 8.71875 L 0.347656 0.25 Z M 33.460938 0.25 " fill-opacity="1" fill-rule="nonzero"/></g></g></g></g><g clip-path="url(#dca478c19c)"><g transform="matrix(1, 0, 0, 1, 241, 246)"><g clip-path="url(#981c928c29)"><g clip-path="url(#6d00d565b8)"><path fill="#1350a7" d="M 28.792969 0.46875 L 28.792969 8.9375 L 0.375 8.9375 L 0.375 0.46875 Z M 28.792969 0.46875 " fill-opacity="1" fill-rule="nonzero"/></g></g></g></g><g clip-path="url(#745c4c8ece)"><g transform="matrix(1, 0, 0, 1, 260, 162)"><g clip-path="url(#29445f388f)"><g clip-path="url(#03ca82cb86)"><path fill="#1350a7" d="M 0.3125 0.886719 L 9.796875 0.886719 L 9.796875 92.953125 L 0.3125 92.953125 Z M 0.3125 0.886719 " fill-opacity="1" fill-rule="nonzero"/></g></g></g></g><g clip-path="url(#90215e1c17)"><g transform="matrix(1, 0, 0, 1, 119, 167)"><g clip-path="url(#b62af63edf)"><g clip-path="url(#bd2f99e33f)"><path fill="#faf3ff" d="M 29.105469 0.691406 L 29.105469 73.273438 L 0.695312 73.273438 L 0.695312 0.691406 Z M 29.105469 0.691406 " fill-opacity="1" fill-rule="nonzero"/></g></g></g></g><g clip-path="url(#2d32f77340)"><g transform="matrix(1, 0, 0, 1, 138, 238)"><g clip-path="url(#5b59f10ed3)"><g clip-path="url(#f6c5f83387)"><path fill="#faf3ff" d="M 29.011719 0.285156 L 29.011719 8.753906 L 0.59375 8.753906 L 0.59375 0.285156 Z M 29.011719 0.285156 " fill-opacity="1" fill-rule="nonzero"/></g></g></g></g><g clip-path="url(#0284da2214)"><g transform="matrix(1, 0, 0, 1, 160, 176)"><g clip-path="url(#01b200b05c)"><g clip-path="url(#1a2aef6f7e)"><path fill="#faf3ff" d="M 54.113281 0.371094 L 54.113281 78.695312 L 0.0703125 78.695312 L 0.0703125 0.371094 Z M 54.113281 0.371094 " fill-opacity="1" fill-rule="nonzero"/></g></g></g></g><g clip-path="url(#8e14ebba6a)"><g transform="matrix(1, 0, 0, 1, 172, 252)"><g clip-path="url(#f685b8a755)"><g clip-path="url(#183fa80d4f)"><path fill="#faf3ff" d="M 28.867188 0.488281 L 28.867188 8.957031 L 0.121094 8.957031 L 0.121094 0.488281 Z M 28.867188 0.488281 " fill-opacity="1" fill-rule="nonzero"/></g></g></g></g><g clip-path="url(#1d6e068841)"><g transform="matrix(1, 0, 0, 1, 178, 259)"><g clip-path="url(#6568e437e8)"><g clip-path="url(#6591b64ed5)"><path fill="#faf3ff" d="M 16.140625 0.222656 L 16.140625 8.691406 L 0.992188 8.691406 L 0.992188 0.222656 Z M 16.140625 0.222656 " fill-opacity="1" fill-rule="nonzero"/></g></g></g></g><g clip-path="url(#5a061d27e2)"><g transform="matrix(1, 0, 0, 1, 207, 238)"><g clip-path="url(#2f71f50434)"><g clip-path="url(#5d20f308cc)"><path fill="#faf3ff" d="M 28.90625 0.285156 L 28.90625 8.753906 L 0.488281 8.753906 L 0.488281 0.285156 Z M 28.90625 0.285156 " fill-opacity="1" fill-rule="nonzero"/></g></g></g></g><g clip-path="url(#0d8b276db9)"><g transform="matrix(1, 0, 0, 1, 226, 167)"><g clip-path="url(#0ae958c07f)"><g clip-path="url(#c214da6e9d)"><path fill="#faf3ff" d="M 29.039062 0.691406 L 29.039062 73.273438 L 0.628906 73.273438 L 0.628906 0.691406 Z M 29.039062 0.691406 " fill-opacity="1" fill-rule="nonzero"/></g></g></g></g><g clip-path="url(#18ca4cd130)"><g transform="matrix(1, 0, 0, 1, 126, 149)"><g clip-path="url(#60b33e6b9c)"><g clip-path="url(#74f8500909)"><path fill="#faf3ff" d="M 34.421875 0.242188 L 34.421875 39.453125 L 0.621094 39.453125 L 0.621094 0.242188 Z M 34.421875 0.242188 " fill-opacity="1" fill-rule="nonzero"/></g></g></g></g><g clip-path="url(#26a992c951)"><g transform="matrix(1, 0, 0, 1, 141, 162)"><g clip-path="url(#bb9b237299)"><g clip-path="url(#18abb401af)"><path fill="#faf3ff" d="M 35.003906 0.566406 L 35.003906 84.140625 L 0.992188 84.140625 L 0.992188 0.566406 Z M 35.003906 0.566406 " fill-opacity="1" fill-rule="nonzero"/></g></g></g></g><g clip-path="url(#7a2c46041e)"><g transform="matrix(1, 0, 0, 1, 176, 176)"><g clip-path="url(#6fdd01394e)"><g clip-path="url(#5a9a44a139)"><path fill="#faf3ff" d="M 18.144531 0.371094 L 18.144531 72.835938 L 0.0078125 72.835938 L 0.0078125 0.371094 Z M 18.144531 0.371094 " fill-opacity="1" fill-rule="nonzero"/></g></g></g></g><g clip-path="url(#296352ca5f)"><g transform="matrix(1, 0, 0, 1, 194, 162)"><g clip-path="url(#fefd4879e6)"><g clip-path="url(#b389cbd7e6)"><path fill="#faf3ff" d="M 33.941406 0.570312 L 33.941406 84.144531 L 0.140625 84.144531 L 0.140625 0.570312 Z M 33.941406 0.570312 " fill-opacity="1" fill-rule="nonzero"/></g></g></g></g><g clip-path="url(#7e1145fa4f)"><g transform="matrix(1, 0, 0, 1, 218, 149)"><g clip-path="url(#0c11b29879)"><g clip-path="url(#42b95a2512)"><path fill="#faf3ff" d="M 31.386719 0.238281 L 31.386719 39.007812 L 0.472656 39.007812 L 0.472656 0.238281 Z M 31.386719 0.238281 " fill-opacity="1" fill-rule="nonzero"/></g></g></g></g><g clip-path="url(#526a62d2c9)"><g transform="matrix(1, 0, 0, 1, 146, 200)"><g clip-path="url(#5ab6e35b67)"><g clip-path="url(#d2432bbb1d)"><path fill="#134b9a" d="M 13.453125 0.640625 L 13.453125 14.539062 L 0.125 14.539062 L 0.125 0.640625 Z M 13.453125 0.640625 " fill-opacity="1" fill-rule="nonzero"/></g></g></g></g><g clip-path="url(#86f9c78461)"><g transform="matrix(1, 0, 0, 1, 153, 208)"><g clip-path="url(#4792f4757d)"><g clip-path="url(#4f22386ceb)"><path fill="#134b9a" d="M 13.394531 0.972656 L 13.394531 13.925781 L 0.0859375 13.925781 L 0.0859375 0.972656 Z M 13.394531 0.972656 " fill-opacity="1" fill-rule="nonzero"/></g></g></g></g><g clip-path="url(#18cf01b71a)"><g transform="matrix(1, 0, 0, 1, 160, 215)"><g clip-path="url(#61e48a2235)"><g clip-path="url(#8b85429236)"><path fill="#134b9a" d="M 13.65625 0.445312 L 13.65625 14.09375 L 0.421875 14.09375 L 0.421875 0.445312 Z M 13.65625 0.445312 " fill-opacity="1" fill-rule="nonzero"/></g></g></g></g><g clip-path="url(#46f00e4d9e)"><g transform="matrix(1, 0, 0, 1, 167, 222)"><g clip-path="url(#d71ed82935)"><g clip-path="url(#ad22f2223a)"><path fill="#134b9a" d="M 20.007812 0.460938 L 20.007812 13.5625 L 0.460938 13.5625 L 0.460938 0.460938 Z M 20.007812 0.460938 " fill-opacity="1" fill-rule="nonzero"/></g></g></g></g><g clip-path="url(#071b28ce2b)"><g transform="matrix(1, 0, 0, 1, 173, 235)"><g clip-path="url(#3dac2d0b9f)"><g clip-path="url(#8a9fe1344f)"><path fill="#134b9a" d="M 8.238281 0.292969 L 8.238281 7.003906 L 0.921875 7.003906 L 0.921875 0.292969 Z M 8.238281 0.292969 " fill-opacity="1" fill-rule="nonzero"/></g></g></g></g><g clip-path="url(#263f053312)"><g transform="matrix(1, 0, 0, 1, 180, 215)"><g clip-path="url(#6e6931c532)"><g clip-path="url(#be3efb01ed)"><path fill="#134b9a" d="M 14.140625 0.640625 L 14.140625 14.289062 L 0.90625 14.289062 L 0.90625 0.640625 Z M 14.140625 0.640625 " fill-opacity="1" fill-rule="nonzero"/></g></g></g></g><g clip-path="url(#39e4fdfb25)"><g transform="matrix(1, 0, 0, 1, 188, 208)"><g clip-path="url(#09384a3068)"><g clip-path="url(#0b26d33225)"><path fill="#134b9a" d="M 13.40625 0.972656 L 13.40625 13.925781 L 0.0976562 13.925781 L 0.0976562 0.972656 Z M 13.40625 0.972656 " fill-opacity="1" fill-rule="nonzero"/></g></g></g></g><g clip-path="url(#dfd1f588c2)"><g transform="matrix(1, 0, 0, 1, 194, 201)"><g clip-path="url(#38a8531ee3)"><g clip-path="url(#ed0307b27e)"><path fill="#134b9a" d="M 14.066406 0.121094 L 14.066406 14.125 L 0.742188 14.125 L 0.742188 0.121094 Z M 14.066406 0.121094 " fill-opacity="1" fill-rule="nonzero"/></g></g></g></g><g clip-path="url(#53897ab34a)"><g transform="matrix(1, 0, 0, 1, 201, 194)"><g clip-path="url(#af61824d18)"><g clip-path="url(#08e62afe79)"><path fill="#134b9a" d="M 13.691406 0.285156 L 13.691406 14.132812 L 0.363281 14.132812 L 0.363281 0.285156 Z M 13.691406 0.285156 " fill-opacity="1" fill-rule="nonzero"/></g></g></g></g><g clip-path="url(#bc70c19c4d)"><g transform="matrix(1, 0, 0, 1, 208, 187)"><g clip-path="url(#b443cac1dc)"><g clip-path="url(#4b9afcd953)"><path fill="#134b9a" d="M 13.207031 0.339844 L 13.207031 14.734375 L 0.84375 14.734375 L 0.84375 0.339844 Z M 13.207031 0.339844 " fill-opacity="1" fill-rule="nonzero"/></g></g></g></g><g clip-path="url(#54776e8ceb)"><g transform="matrix(1, 0, 0, 1, 215, 180)"><g clip-path="url(#cc102bf9e9)"><g clip-path="url(#92a707fbb2)"><path fill="#134b9a" d="M 12.945312 0.761719 L 12.945312 15.15625 L 0.578125 15.15625 L 0.578125 0.761719 Z M 12.945312 0.761719 " fill-opacity="1" fill-rule="nonzero"/></g></g></g></g><g clip-path="url(#a6b9cff142)"><g transform="matrix(1, 0, 0, 1, 194, 137)"><g clip-path="url(#14f16ed57a)"><g clip-path="url(#180643778d)"><path fill="#faf3ff" d="M 0.25 0.191406 L 11.996094 0.191406 L 11.996094 11.9375 L 0.25 11.9375 Z M 0.25 0.191406 " fill-opacity="1" fill-rule="nonzero"/></g></g></g></g><g clip-path="url(#26dd8a965c)"><g transform="matrix(1, 0, 0, 1, 169, 114)"><g clip-path="url(#57aac492b5)"><g clip-path="url(#bd6f9bc5d7)"><path fill="#faf3ff" d="M 0.789062 0.546875 L 12.539062 0.546875 L 12.539062 12.296875 L 0.789062 12.296875 Z M 0.789062 0.546875 " fill-opacity="1" fill-rule="nonzero"/></g></g></g></g><g clip-path="url(#bd74140a84)"><g transform="matrix(1, 0, 0, 1, 194, 91)"><g clip-path="url(#e220569731)"><g clip-path="url(#31d799ac78)"><path fill="#faf3ff" d="M 0.25 0.472656 L 11.996094 0.472656 L 11.996094 12.222656 L 0.25 12.222656 Z M 0.25 0.472656 " fill-opacity="1" fill-rule="nonzero"/></g></g></g></g></svg>