<svg xmlns="http://www.w3.org/2000/svg" xmlns:xlink="http://www.w3.org/1999/xlink" width="500" zoomAndPan="magnify" viewBox="0 0 375 374.999991" height="500" preserveAspectRatio="xMidYMid meet" version="1.2"><defs><clipPath id="5e568dae56"><path d="M 74.835938 37.492188 L 88.210938 37.492188 L 88.210938 249.445312 L 74.835938 249.445312 Z M 74.835938 37.492188 "/></clipPath><clipPath id="0efb8accf3"><path d="M 88.210938 50.871094 L 101.585938 50.871094 L 101.585938 262.820312 L 88.210938 262.820312 Z M 88.210938 50.871094 "/></clipPath><clipPath id="c89f30335c"><path d="M 88.210938 249.453125 L 217.632812 249.453125 L 217.632812 262.828125 L 88.210938 262.828125 Z M 88.210938 249.453125 "/></clipPath><clipPath id="b7c2f01488"><path d="M 88.210938 236.074219 L 204.253906 236.074219 L 204.253906 249.453125 L 88.210938 249.453125 Z M 88.210938 236.074219 "/></clipPath><clipPath id="d1133c26b6"><path d="M 286.78125 50.875 L 300.15625 50.875 L 300.15625 262.828125 L 286.78125 262.828125 Z M 286.78125 50.875 "/></clipPath><clipPath id="18896473ac"><path d="M 273.40625 37.5 L 286.78125 37.5 L 286.78125 249.453125 L 273.40625 249.453125 Z M 273.40625 37.5 "/></clipPath><clipPath id="107914c9c3"><path d="M 157.359375 37.496094 L 286.777344 37.496094 L 286.777344 50.871094 L 157.359375 50.871094 Z M 157.359375 37.496094 "/></clipPath><clipPath id="e661faab64"><path d="M 170.742188 50.871094 L 286.785156 50.871094 L 286.785156 64.246094 L 170.742188 64.246094 Z M 170.742188 50.871094 "/></clipPath><clipPath id="ab323c9158"><path d="M 81.527344 50.871094 L 94.902344 50.871094 L 94.902344 249.449219 L 81.527344 249.449219 Z M 81.527344 50.871094 "/></clipPath><clipPath id="81612b4d2c"><path d="M 88.210938 242.765625 L 204.253906 242.765625 L 204.253906 256.140625 L 88.210938 256.140625 Z M 88.210938 242.765625 "/></clipPath><clipPath id="ac6e9b6ff4"><path d="M 280.097656 50.875 L 293.472656 50.875 L 293.472656 249.449219 L 280.097656 249.449219 Z M 280.097656 50.875 "/></clipPath><clipPath id="ca801561ca"><path d="M 170.742188 44.183594 L 286.785156 44.183594 L 286.785156 57.558594 L 170.742188 57.558594 Z M 170.742188 44.183594 "/></clipPath><clipPath id="c89fb2ab85"><path d="M 125.6875 131.675781 L 132.808594 131.675781 L 132.808594 200.8125 L 125.6875 200.8125 Z M 125.6875 131.675781 "/></clipPath><clipPath id="5788a5e13b"><path d="M 125.683594 194.453125 L 147.019531 194.453125 L 147.019531 200.816406 L 125.683594 200.816406 Z M 125.683594 194.453125 "/></clipPath><clipPath id="cf94937890"><path d="M 138.015625 200.300781 L 162.882812 200.300781 L 162.882812 206.660156 L 138.015625 206.660156 Z M 138.015625 200.300781 "/></clipPath><clipPath id="6ff16089e7"><path d="M 157.027344 206.148438 L 172.070312 206.148438 L 172.070312 212.507812 L 157.027344 212.507812 Z M 157.027344 206.148438 "/></clipPath><clipPath id="99a51ca234"><path d="M 166.308594 211.132812 L 177.058594 211.132812 L 177.058594 217.492188 L 166.308594 217.492188 Z M 166.308594 211.132812 "/></clipPath><clipPath id="bc141498f6"><path d="M 174.253906 216.785156 L 200.460938 216.785156 L 200.460938 222.289062 L 174.253906 222.289062 Z M 174.253906 216.785156 "/></clipPath><clipPath id="e7ff3b62da"><path d="M 196.472656 211.132812 L 207.222656 211.132812 L 207.222656 217.492188 L 196.472656 217.492188 Z M 196.472656 211.132812 "/></clipPath><clipPath id="1cfff1ce4e"><path d="M 201.847656 206.148438 L 216.890625 206.148438 L 216.890625 212.507812 L 201.847656 212.507812 Z M 201.847656 206.148438 "/></clipPath><clipPath id="9f508b7b3f"><path d="M 211.421875 200.300781 L 236.289062 200.300781 L 236.289062 206.660156 L 211.421875 206.660156 Z M 211.421875 200.300781 "/></clipPath><clipPath id="c10d08ef94"><path d="M 227.96875 194.453125 L 249.308594 194.453125 L 249.308594 200.816406 L 227.96875 200.816406 Z M 227.96875 194.453125 "/></clipPath><clipPath id="32b270ed47"><path d="M 242.191406 131.675781 L 249.3125 131.675781 L 249.3125 200.8125 L 242.191406 200.8125 Z M 242.191406 131.675781 "/></clipPath><clipPath id="a431f868f9"><path d="M 136.570312 135.285156 L 157.910156 135.285156 L 157.910156 189.773438 L 136.570312 189.773438 Z M 136.570312 135.285156 "/></clipPath><clipPath id="f10501f8c7"><path d="M 150.769531 188.308594 L 172.109375 188.308594 L 172.109375 194.667969 L 150.769531 194.667969 Z M 150.769531 188.308594 "/></clipPath><clipPath id="12e735cbc8"><path d="M 166.894531 141.804688 L 207.488281 141.804688 L 207.488281 200.601562 L 166.894531 200.601562 Z M 166.894531 141.804688 "/></clipPath><clipPath id="1f421f5e15"><path d="M 175.960938 198.976562 L 197.539062 198.976562 L 197.539062 205.335938 L 175.960938 205.335938 Z M 175.960938 198.976562 "/></clipPath><clipPath id="d52bdfb275"><path d="M 181.097656 204.035156 L 192.488281 204.035156 L 192.488281 210.394531 L 181.097656 210.394531 Z M 181.097656 204.035156 "/></clipPath><clipPath id="686cb6dbd8"><path d="M 202.515625 188.308594 L 223.855469 188.308594 L 223.855469 194.667969 L 202.515625 194.667969 Z M 202.515625 188.308594 "/></clipPath><clipPath id="8b15469f69"><path d="M 216.890625 135.285156 L 238.230469 135.285156 L 238.230469 189.773438 L 216.890625 189.773438 Z M 216.890625 135.285156 "/></clipPath><clipPath id="bab734a275"><path d="M 141.773438 121.429688 L 167.160156 121.429688 L 167.160156 150.851562 L 141.773438 150.851562 Z M 141.773438 121.429688 "/></clipPath><clipPath id="e8eee3cbad"><path d="M 153.320312 131.4375 L 178.867188 131.4375 L 178.867188 194.246094 L 153.320312 194.246094 Z M 153.320312 131.4375 "/></clipPath><clipPath id="8cb930b18a"><path d="M 178.871094 141.804688 L 192.488281 141.804688 L 192.488281 196.246094 L 178.871094 196.246094 Z M 178.871094 141.804688 "/></clipPath><clipPath id="8194481891"><path d="M 192.488281 131.4375 L 217.875 131.4375 L 217.875 194.246094 L 192.488281 194.246094 Z M 192.488281 131.4375 "/></clipPath><clipPath id="686affee88"><path d="M 210.761719 121.425781 L 233.984375 121.425781 L 233.984375 150.503906 L 210.761719 150.503906 Z M 210.761719 121.425781 "/></clipPath><clipPath id="f3d0046ee0"><path d="M 156.421875 160.03125 L 166.433594 160.03125 L 166.433594 170.484375 L 156.421875 170.484375 Z M 156.421875 160.03125 "/></clipPath><clipPath id="6ecd7a573c"><path d="M 161.636719 166.289062 L 171.648438 166.289062 L 171.648438 176.019531 L 161.636719 176.019531 Z M 161.636719 166.289062 "/></clipPath><clipPath id="e2b1e77ee2"><path d="M 167.164062 171.15625 L 177.101562 171.15625 L 177.101562 181.394531 L 167.164062 181.394531 Z M 167.164062 171.15625 "/></clipPath><clipPath id="a390c8a971"><path d="M 172.457031 176.425781 L 187.128906 176.425781 L 187.128906 186.261719 L 172.457031 186.261719 Z M 172.457031 176.425781 "/></clipPath><clipPath id="bdf557460f"><path d="M 177.296875 186.0625 L 182.796875 186.0625 L 182.796875 191.101562 L 177.296875 191.101562 Z M 177.296875 186.0625 "/></clipPath><clipPath id="e58206530d"><path d="M 182.546875 171.300781 L 192.488281 171.300781 L 192.488281 181.542969 L 182.546875 181.542969 Z M 182.546875 171.300781 "/></clipPath><clipPath id="b4af1de814"><path d="M 187.933594 166.289062 L 197.945312 166.289062 L 197.945312 176.019531 L 187.933594 176.019531 Z M 187.933594 166.289062 "/></clipPath><clipPath id="38f4d66082"><path d="M 192.9375 160.394531 L 202.949219 160.394531 L 202.949219 170.925781 L 192.9375 170.925781 Z M 192.9375 160.394531 "/></clipPath><clipPath id="910307fca3"><path d="M 197.914062 155.261719 L 207.921875 155.261719 L 207.921875 165.660156 L 197.914062 165.660156 Z M 197.914062 155.261719 "/></clipPath><clipPath id="49b04ed52f"><path d="M 203.53125 150.042969 L 212.820312 150.042969 L 212.820312 160.84375 L 203.53125 160.84375 Z M 203.53125 150.042969 "/></clipPath><clipPath id="b91e66f284"><path d="M 208.589844 145.101562 L 217.878906 145.101562 L 217.878906 155.902344 L 208.589844 155.902344 Z M 208.589844 145.101562 "/></clipPath><clipPath id="1e05cbd037"><path d="M 192.570312 112.375 L 201.394531 112.375 L 201.394531 121.203125 L 192.570312 121.203125 Z M 192.570312 112.375 "/></clipPath><clipPath id="e68f8903a0"><path d="M 174.195312 95.367188 L 183.023438 95.367188 L 183.023438 104.195312 L 174.195312 104.195312 Z M 174.195312 95.367188 "/></clipPath><clipPath id="25d1e646a3"><path d="M 192.570312 78.039062 L 201.394531 78.039062 L 201.394531 86.863281 L 192.570312 86.863281 Z M 192.570312 78.039062 "/></clipPath></defs><g id="906edf81a8"><rect x="0" width="375" y="0" height="374.999991" style="fill:#ffffff;fill-opacity:1;stroke:none;"/><rect x="0" width="375" y="0" height="374.999991" style="fill:#1b0d34;fill-opacity:1;stroke:none;"/><g clip-rule="nonzero" clip-path="url(#5e568dae56)"><path style=" stroke:none;fill-rule:nonzero;fill:#1553ad;fill-opacity:1;" d="M 74.835938 249.445312 L 74.835938 37.515625 L 88.210938 37.515625 L 88.210938 249.445312 Z M 74.835938 249.445312 "/></g><g clip-rule="nonzero" clip-path="url(#0efb8accf3)"><path style=" stroke:none;fill-rule:nonzero;fill:#1553ad;fill-opacity:1;" d="M 88.210938 262.820312 L 88.210938 50.894531 L 101.585938 50.894531 L 101.585938 262.820312 Z M 88.210938 262.820312 "/></g><g clip-rule="nonzero" clip-path="url(#c89f30335c)"><path style=" stroke:none;fill-rule:nonzero;fill:#1553ad;fill-opacity:1;" d="M 88.210938 249.453125 L 217.636719 249.453125 L 217.636719 262.828125 L 88.210938 262.828125 Z M 88.210938 249.453125 "/></g><g clip-rule="nonzero" clip-path="url(#b7c2f01488)"><path style=" stroke:none;fill-rule:nonzero;fill:#1553ad;fill-opacity:1;" d="M 88.210938 236.074219 L 204.261719 236.074219 L 204.261719 249.453125 L 88.210938 249.453125 Z M 88.210938 236.074219 "/></g><g clip-rule="nonzero" clip-path="url(#d1133c26b6)"><path style=" stroke:none;fill-rule:nonzero;fill:#faf3ff;fill-opacity:1;" d="M 300.15625 50.875 L 300.15625 262.804688 L 286.78125 262.804688 L 286.78125 50.875 Z M 300.15625 50.875 "/></g><g clip-rule="nonzero" clip-path="url(#18896473ac)"><path style=" stroke:none;fill-rule:nonzero;fill:#faf3ff;fill-opacity:1;" d="M 286.78125 37.5 L 286.78125 249.429688 L 273.40625 249.429688 L 273.40625 37.5 Z M 286.78125 37.5 "/></g><g clip-rule="nonzero" clip-path="url(#107914c9c3)"><path style=" stroke:none;fill-rule:nonzero;fill:#faf3ff;fill-opacity:1;" d="M 286.777344 50.871094 L 157.355469 50.871094 L 157.355469 37.496094 L 286.777344 37.496094 Z M 286.777344 50.871094 "/></g><g clip-rule="nonzero" clip-path="url(#e661faab64)"><path style=" stroke:none;fill-rule:nonzero;fill:#faf3ff;fill-opacity:1;" d="M 286.785156 64.246094 L 170.734375 64.246094 L 170.734375 50.871094 L 286.785156 50.871094 Z M 286.785156 64.246094 "/></g><g clip-rule="nonzero" clip-path="url(#ab323c9158)"><path style=" stroke:none;fill-rule:nonzero;fill:#1553ad;fill-opacity:1;" d="M 81.527344 249.449219 L 81.527344 50.894531 L 94.902344 50.894531 L 94.902344 249.449219 Z M 81.527344 249.449219 "/></g><g clip-rule="nonzero" clip-path="url(#81612b4d2c)"><path style=" stroke:none;fill-rule:nonzero;fill:#1553ad;fill-opacity:1;" d="M 88.210938 242.765625 L 204.261719 242.765625 L 204.261719 256.140625 L 88.210938 256.140625 Z M 88.210938 242.765625 "/></g><g clip-rule="nonzero" clip-path="url(#ac6e9b6ff4)"><path style=" stroke:none;fill-rule:nonzero;fill:#faf3ff;fill-opacity:1;" d="M 293.472656 50.875 L 293.472656 249.425781 L 280.097656 249.425781 L 280.097656 50.875 Z M 293.472656 50.875 "/></g><g clip-rule="nonzero" clip-path="url(#ca801561ca)"><path style=" stroke:none;fill-rule:nonzero;fill:#faf3ff;fill-opacity:1;" d="M 286.785156 57.558594 L 170.734375 57.558594 L 170.734375 44.183594 L 286.785156 44.183594 Z M 286.785156 57.558594 "/></g><g clip-rule="nonzero" clip-path="url(#c89fb2ab85)"><path style=" stroke:none;fill-rule:nonzero;fill:#1350a7;fill-opacity:1;" d="M 125.6875 131.675781 L 132.808594 131.675781 L 132.808594 200.828125 L 125.6875 200.828125 Z M 125.6875 131.675781 "/></g><g clip-rule="nonzero" clip-path="url(#5788a5e13b)"><path style=" stroke:none;fill-rule:nonzero;fill:#1350a7;fill-opacity:1;" d="M 147.019531 194.453125 L 147.019531 200.816406 L 125.679688 200.816406 L 125.679688 194.453125 Z M 147.019531 194.453125 "/></g><g clip-rule="nonzero" clip-path="url(#cf94937890)"><path style=" stroke:none;fill-rule:nonzero;fill:#1350a7;fill-opacity:1;" d="M 162.882812 200.300781 L 162.882812 206.660156 L 138.011719 206.660156 L 138.011719 200.300781 Z M 162.882812 200.300781 "/></g><g clip-rule="nonzero" clip-path="url(#6ff16089e7)"><path style=" stroke:none;fill-rule:nonzero;fill:#1350a7;fill-opacity:1;" d="M 172.070312 206.148438 L 172.070312 212.507812 L 157.039062 212.507812 L 157.039062 206.148438 Z M 172.070312 206.148438 "/></g><g clip-rule="nonzero" clip-path="url(#99a51ca234)"><path style=" stroke:none;fill-rule:nonzero;fill:#1350a7;fill-opacity:1;" d="M 177.058594 211.132812 L 177.058594 217.492188 L 166.296875 217.492188 L 166.296875 211.132812 Z M 177.058594 211.132812 "/></g><g clip-rule="nonzero" clip-path="url(#bc141498f6)"><path style=" stroke:none;fill-rule:nonzero;fill:#1350a7;fill-opacity:1;" d="M 200.460938 216.785156 L 200.460938 222.289062 L 174.261719 222.289062 L 174.261719 216.785156 Z M 200.460938 216.785156 "/></g><g clip-rule="nonzero" clip-path="url(#e7ff3b62da)"><path style=" stroke:none;fill-rule:nonzero;fill:#1350a7;fill-opacity:1;" d="M 207.222656 211.132812 L 207.222656 217.492188 L 196.464844 217.492188 L 196.464844 211.132812 Z M 207.222656 211.132812 "/></g><g clip-rule="nonzero" clip-path="url(#1cfff1ce4e)"><path style=" stroke:none;fill-rule:nonzero;fill:#1350a7;fill-opacity:1;" d="M 216.890625 206.148438 L 216.890625 212.507812 L 201.859375 212.507812 L 201.859375 206.148438 Z M 216.890625 206.148438 "/></g><g clip-rule="nonzero" clip-path="url(#9f508b7b3f)"><path style=" stroke:none;fill-rule:nonzero;fill:#1350a7;fill-opacity:1;" d="M 236.289062 200.300781 L 236.289062 206.660156 L 211.421875 206.660156 L 211.421875 200.300781 Z M 236.289062 200.300781 "/></g><g clip-rule="nonzero" clip-path="url(#c10d08ef94)"><path style=" stroke:none;fill-rule:nonzero;fill:#1350a7;fill-opacity:1;" d="M 249.308594 194.453125 L 249.308594 200.816406 L 227.964844 200.816406 L 227.964844 194.453125 Z M 249.308594 194.453125 "/></g><g clip-rule="nonzero" clip-path="url(#32b270ed47)"><path style=" stroke:none;fill-rule:nonzero;fill:#1350a7;fill-opacity:1;" d="M 242.191406 131.675781 L 249.3125 131.675781 L 249.3125 200.828125 L 242.191406 200.828125 Z M 242.191406 131.675781 "/></g><g clip-rule="nonzero" clip-path="url(#a431f868f9)"><path style=" stroke:none;fill-rule:nonzero;fill:#faf3ff;fill-opacity:1;" d="M 157.910156 135.285156 L 157.910156 189.800781 L 136.570312 189.800781 L 136.570312 135.285156 Z M 157.910156 135.285156 "/></g><g clip-rule="nonzero" clip-path="url(#f10501f8c7)"><path style=" stroke:none;fill-rule:nonzero;fill:#faf3ff;fill-opacity:1;" d="M 172.109375 188.308594 L 172.109375 194.667969 L 150.769531 194.667969 L 150.769531 188.308594 Z M 172.109375 188.308594 "/></g><g clip-rule="nonzero" clip-path="url(#12e735cbc8)"><path style=" stroke:none;fill-rule:nonzero;fill:#faf3ff;fill-opacity:1;" d="M 207.488281 141.804688 L 207.488281 200.632812 L 166.894531 200.632812 L 166.894531 141.804688 Z M 207.488281 141.804688 "/></g><g clip-rule="nonzero" clip-path="url(#1f421f5e15)"><path style=" stroke:none;fill-rule:nonzero;fill:#faf3ff;fill-opacity:1;" d="M 197.539062 198.976562 L 197.539062 205.335938 L 175.949219 205.335938 L 175.949219 198.976562 Z M 197.539062 198.976562 "/></g><g clip-rule="nonzero" clip-path="url(#d52bdfb275)"><path style=" stroke:none;fill-rule:nonzero;fill:#faf3ff;fill-opacity:1;" d="M 192.488281 204.035156 L 192.488281 210.394531 L 181.109375 210.394531 L 181.109375 204.035156 Z M 192.488281 204.035156 "/></g><g clip-rule="nonzero" clip-path="url(#686cb6dbd8)"><path style=" stroke:none;fill-rule:nonzero;fill:#faf3ff;fill-opacity:1;" d="M 223.855469 188.308594 L 223.855469 194.667969 L 202.515625 194.667969 L 202.515625 188.308594 Z M 223.855469 188.308594 "/></g><g clip-rule="nonzero" clip-path="url(#8b15469f69)"><path style=" stroke:none;fill-rule:nonzero;fill:#faf3ff;fill-opacity:1;" d="M 238.230469 135.285156 L 238.230469 189.800781 L 216.890625 189.800781 L 216.890625 135.285156 Z M 238.230469 135.285156 "/></g><g clip-rule="nonzero" clip-path="url(#bab734a275)"><path style=" stroke:none;fill-rule:nonzero;fill:#faf3ff;fill-opacity:1;" d="M 167.160156 121.429688 L 167.160156 150.882812 L 141.773438 150.882812 L 141.773438 121.429688 Z M 167.160156 121.429688 "/></g><g clip-rule="nonzero" clip-path="url(#e8eee3cbad)"><path style=" stroke:none;fill-rule:nonzero;fill:#faf3ff;fill-opacity:1;" d="M 178.867188 131.4375 L 178.867188 194.207031 L 153.320312 194.207031 L 153.320312 131.4375 Z M 178.867188 131.4375 "/></g><g clip-rule="nonzero" clip-path="url(#8cb930b18a)"><path style=" stroke:none;fill-rule:nonzero;fill:#faf3ff;fill-opacity:1;" d="M 192.488281 141.804688 L 192.488281 196.234375 L 178.871094 196.234375 L 178.871094 141.804688 Z M 192.488281 141.804688 "/></g><g clip-rule="nonzero" clip-path="url(#8194481891)"><path style=" stroke:none;fill-rule:nonzero;fill:#faf3ff;fill-opacity:1;" d="M 217.875 131.4375 L 217.875 194.210938 L 192.488281 194.210938 L 192.488281 131.4375 Z M 217.875 131.4375 "/></g><g clip-rule="nonzero" clip-path="url(#686affee88)"><path style=" stroke:none;fill-rule:nonzero;fill:#faf3ff;fill-opacity:1;" d="M 233.984375 121.425781 L 233.984375 150.542969 L 210.761719 150.542969 L 210.761719 121.425781 Z M 233.984375 121.425781 "/></g><g clip-rule="nonzero" clip-path="url(#f3d0046ee0)"><path style=" stroke:none;fill-rule:nonzero;fill:#134b9a;fill-opacity:1;" d="M 166.433594 160.03125 L 166.433594 170.472656 L 156.421875 170.472656 L 156.421875 160.03125 Z M 166.433594 160.03125 "/></g><g clip-rule="nonzero" clip-path="url(#6ecd7a573c)"><path style=" stroke:none;fill-rule:nonzero;fill:#134b9a;fill-opacity:1;" d="M 171.648438 166.289062 L 171.648438 176.019531 L 161.652344 176.019531 L 161.652344 166.289062 Z M 171.648438 166.289062 "/></g><g clip-rule="nonzero" clip-path="url(#e2b1e77ee2)"><path style=" stroke:none;fill-rule:nonzero;fill:#134b9a;fill-opacity:1;" d="M 177.101562 171.15625 L 177.101562 181.40625 L 167.164062 181.40625 L 167.164062 171.15625 Z M 177.101562 171.15625 "/></g><g clip-rule="nonzero" clip-path="url(#a390c8a971)"><path style=" stroke:none;fill-rule:nonzero;fill:#134b9a;fill-opacity:1;" d="M 187.128906 176.425781 L 187.128906 186.261719 L 172.449219 186.261719 L 172.449219 176.425781 Z M 187.128906 176.425781 "/></g><g clip-rule="nonzero" clip-path="url(#bdf557460f)"><path style=" stroke:none;fill-rule:nonzero;fill:#134b9a;fill-opacity:1;" d="M 182.796875 186.0625 L 182.796875 191.101562 L 177.300781 191.101562 L 177.300781 186.0625 Z M 182.796875 186.0625 "/></g><g clip-rule="nonzero" clip-path="url(#e58206530d)"><path style=" stroke:none;fill-rule:nonzero;fill:#134b9a;fill-opacity:1;" d="M 192.488281 171.300781 L 192.488281 181.550781 L 182.546875 181.550781 L 182.546875 171.300781 Z M 192.488281 171.300781 "/></g><g clip-rule="nonzero" clip-path="url(#b4af1de814)"><path style=" stroke:none;fill-rule:nonzero;fill:#134b9a;fill-opacity:1;" d="M 197.945312 166.289062 L 197.945312 176.019531 L 187.949219 176.019531 L 187.949219 166.289062 Z M 197.945312 166.289062 "/></g><g clip-rule="nonzero" clip-path="url(#38f4d66082)"><path style=" stroke:none;fill-rule:nonzero;fill:#134b9a;fill-opacity:1;" d="M 202.949219 160.394531 L 202.949219 170.914062 L 192.9375 170.914062 L 192.9375 160.394531 Z M 202.949219 160.394531 "/></g><g clip-rule="nonzero" clip-path="url(#910307fca3)"><path style=" stroke:none;fill-rule:nonzero;fill:#134b9a;fill-opacity:1;" d="M 207.921875 155.261719 L 207.921875 165.660156 L 197.914062 165.660156 L 197.914062 155.261719 Z M 207.921875 155.261719 "/></g><g clip-rule="nonzero" clip-path="url(#49b04ed52f)"><path style=" stroke:none;fill-rule:nonzero;fill:#134b9a;fill-opacity:1;" d="M 212.820312 150.042969 L 212.820312 160.855469 L 203.53125 160.855469 L 203.53125 150.042969 Z M 212.820312 150.042969 "/></g><g clip-rule="nonzero" clip-path="url(#b91e66f284)"><path style=" stroke:none;fill-rule:nonzero;fill:#134b9a;fill-opacity:1;" d="M 217.878906 145.101562 L 217.878906 155.914062 L 208.589844 155.914062 L 208.589844 145.101562 Z M 217.878906 145.101562 "/></g><g clip-rule="nonzero" clip-path="url(#1e05cbd037)"><path style=" stroke:none;fill-rule:nonzero;fill:#faf3ff;fill-opacity:1;" d="M 192.570312 112.375 L 201.394531 112.375 L 201.394531 121.203125 L 192.570312 121.203125 Z M 192.570312 112.375 "/></g><g clip-rule="nonzero" clip-path="url(#e68f8903a0)"><path style=" stroke:none;fill-rule:nonzero;fill:#faf3ff;fill-opacity:1;" d="M 174.195312 95.367188 L 183.023438 95.367188 L 183.023438 104.195312 L 174.195312 104.195312 Z M 174.195312 95.367188 "/></g><g clip-rule="nonzero" clip-path="url(#25d1e646a3)"><path style=" stroke:none;fill-rule:nonzero;fill:#faf3ff;fill-opacity:1;" d="M 192.570312 78.039062 L 201.394531 78.039062 L 201.394531 86.863281 L 192.570312 86.863281 Z M 192.570312 78.039062 "/></g><g style="fill:#faf3ff;fill-opacity:1;"><g transform="translate(74.847642, 326.593925)"><path style="stroke:none" d="M 9.53125 -5.40625 L 18.703125 -5.40625 L 18.703125 0 L 2.53125 0 L 2.53125 -28.734375 L 9.53125 -28.734375 Z M 9.53125 -5.40625 "/></g></g><g style="fill:#faf3ff;fill-opacity:1;"><g transform="translate(94.372944, 326.593925)"><path style="stroke:none" d="M 24.078125 -11.796875 C 24.078125 -11.140625 24.035156 -10.457031 23.953125 -9.75 L 8.109375 -9.75 C 8.210938 -8.320312 8.664062 -7.234375 9.46875 -6.484375 C 10.28125 -5.734375 11.269531 -5.359375 12.4375 -5.359375 C 14.1875 -5.359375 15.40625 -6.097656 16.09375 -7.578125 L 23.53125 -7.578125 C 23.15625 -6.078125 22.46875 -4.722656 21.46875 -3.515625 C 20.476562 -2.316406 19.226562 -1.375 17.71875 -0.6875 C 16.21875 -0.0078125 14.539062 0.328125 12.6875 0.328125 C 10.445312 0.328125 8.453125 -0.144531 6.703125 -1.09375 C 4.960938 -2.050781 3.597656 -3.414062 2.609375 -5.1875 C 1.628906 -6.96875 1.140625 -9.046875 1.140625 -11.421875 C 1.140625 -13.796875 1.625 -15.867188 2.59375 -17.640625 C 3.5625 -19.421875 4.921875 -20.785156 6.671875 -21.734375 C 8.421875 -22.691406 10.425781 -23.171875 12.6875 -23.171875 C 14.894531 -23.171875 16.859375 -22.707031 18.578125 -21.78125 C 20.304688 -20.851562 21.65625 -19.53125 22.625 -17.8125 C 23.59375 -16.09375 24.078125 -14.085938 24.078125 -11.796875 Z M 16.90625 -13.625 C 16.90625 -14.832031 16.492188 -15.789062 15.671875 -16.5 C 14.859375 -17.207031 13.835938 -17.5625 12.609375 -17.5625 C 11.429688 -17.5625 10.441406 -17.21875 9.640625 -16.53125 C 8.835938 -15.851562 8.335938 -14.882812 8.140625 -13.625 Z M 16.90625 -13.625 "/></g></g><g style="fill:#faf3ff;fill-opacity:1;"><g transform="translate(119.588007, 326.593925)"><path style="stroke:none" d="M 12.8125 -6.546875 L 17.765625 -22.84375 L 25.21875 -22.84375 L 17.109375 0 L 8.46875 0 L 0.375 -22.84375 L 7.859375 -22.84375 Z M 12.8125 -6.546875 "/></g></g><g style="fill:#faf3ff;fill-opacity:1;"><g transform="translate(145.212403, 326.593925)"><path style="stroke:none" d="M 24.078125 -11.796875 C 24.078125 -11.140625 24.035156 -10.457031 23.953125 -9.75 L 8.109375 -9.75 C 8.210938 -8.320312 8.664062 -7.234375 9.46875 -6.484375 C 10.28125 -5.734375 11.269531 -5.359375 12.4375 -5.359375 C 14.1875 -5.359375 15.40625 -6.097656 16.09375 -7.578125 L 23.53125 -7.578125 C 23.15625 -6.078125 22.46875 -4.722656 21.46875 -3.515625 C 20.476562 -2.316406 19.226562 -1.375 17.71875 -0.6875 C 16.21875 -0.0078125 14.539062 0.328125 12.6875 0.328125 C 10.445312 0.328125 8.453125 -0.144531 6.703125 -1.09375 C 4.960938 -2.050781 3.597656 -3.414062 2.609375 -5.1875 C 1.628906 -6.96875 1.140625 -9.046875 1.140625 -11.421875 C 1.140625 -13.796875 1.625 -15.867188 2.59375 -17.640625 C 3.5625 -19.421875 4.921875 -20.785156 6.671875 -21.734375 C 8.421875 -22.691406 10.425781 -23.171875 12.6875 -23.171875 C 14.894531 -23.171875 16.859375 -22.707031 18.578125 -21.78125 C 20.304688 -20.851562 21.65625 -19.53125 22.625 -17.8125 C 23.59375 -16.09375 24.078125 -14.085938 24.078125 -11.796875 Z M 16.90625 -13.625 C 16.90625 -14.832031 16.492188 -15.789062 15.671875 -16.5 C 14.859375 -17.207031 13.835938 -17.5625 12.609375 -17.5625 C 11.429688 -17.5625 10.441406 -17.21875 9.640625 -16.53125 C 8.835938 -15.851562 8.335938 -14.882812 8.140625 -13.625 Z M 16.90625 -13.625 "/></g></g><g style="fill:#faf3ff;fill-opacity:1;"><g transform="translate(170.427467, 326.593925)"><path style="stroke:none" d="M 9.53125 -30.296875 L 9.53125 0 L 2.53125 0 L 2.53125 -30.296875 Z M 9.53125 -30.296875 "/></g></g><g style="fill:#faf3ff;fill-opacity:1;"><g transform="translate(182.502859, 326.593925)"><path style="stroke:none" d="M 9.53125 -5.40625 L 18.703125 -5.40625 L 18.703125 0 L 2.53125 0 L 2.53125 -28.734375 L 9.53125 -28.734375 Z M 9.53125 -5.40625 "/></g></g><g style="fill:#faf3ff;fill-opacity:1;"><g transform="translate(202.028161, 326.593925)"><path style="stroke:none" d="M 24.078125 -11.796875 C 24.078125 -11.140625 24.035156 -10.457031 23.953125 -9.75 L 8.109375 -9.75 C 8.210938 -8.320312 8.664062 -7.234375 9.46875 -6.484375 C 10.28125 -5.734375 11.269531 -5.359375 12.4375 -5.359375 C 14.1875 -5.359375 15.40625 -6.097656 16.09375 -7.578125 L 23.53125 -7.578125 C 23.15625 -6.078125 22.46875 -4.722656 21.46875 -3.515625 C 20.476562 -2.316406 19.226562 -1.375 17.71875 -0.6875 C 16.21875 -0.0078125 14.539062 0.328125 12.6875 0.328125 C 10.445312 0.328125 8.453125 -0.144531 6.703125 -1.09375 C 4.960938 -2.050781 3.597656 -3.414062 2.609375 -5.1875 C 1.628906 -6.96875 1.140625 -9.046875 1.140625 -11.421875 C 1.140625 -13.796875 1.625 -15.867188 2.59375 -17.640625 C 3.5625 -19.421875 4.921875 -20.785156 6.671875 -21.734375 C 8.421875 -22.691406 10.425781 -23.171875 12.6875 -23.171875 C 14.894531 -23.171875 16.859375 -22.707031 18.578125 -21.78125 C 20.304688 -20.851562 21.65625 -19.53125 22.625 -17.8125 C 23.59375 -16.09375 24.078125 -14.085938 24.078125 -11.796875 Z M 16.90625 -13.625 C 16.90625 -14.832031 16.492188 -15.789062 15.671875 -16.5 C 14.859375 -17.207031 13.835938 -17.5625 12.609375 -17.5625 C 11.429688 -17.5625 10.441406 -17.21875 9.640625 -16.53125 C 8.835938 -15.851562 8.335938 -14.882812 8.140625 -13.625 Z M 16.90625 -13.625 "/></g></g><g style="fill:#faf3ff;fill-opacity:1;"><g transform="translate(227.243225, 326.593925)"><path style="stroke:none" d="M 1.140625 -11.46875 C 1.140625 -13.8125 1.582031 -15.867188 2.46875 -17.640625 C 3.363281 -19.421875 4.570312 -20.785156 6.09375 -21.734375 C 7.625 -22.691406 9.332031 -23.171875 11.21875 -23.171875 C 12.820312 -23.171875 14.234375 -22.84375 15.453125 -22.1875 C 16.671875 -21.53125 17.609375 -20.671875 18.265625 -19.609375 L 18.265625 -22.84375 L 25.265625 -22.84375 L 25.265625 0 L 18.265625 0 L 18.265625 -3.234375 C 17.578125 -2.171875 16.625 -1.3125 15.40625 -0.65625 C 14.195312 0 12.785156 0.328125 11.171875 0.328125 C 9.316406 0.328125 7.625 -0.15625 6.09375 -1.125 C 4.570312 -2.09375 3.363281 -3.46875 2.46875 -5.25 C 1.582031 -7.039062 1.140625 -9.113281 1.140625 -11.46875 Z M 18.265625 -11.421875 C 18.265625 -13.171875 17.773438 -14.550781 16.796875 -15.5625 C 15.828125 -16.570312 14.648438 -17.078125 13.265625 -17.078125 C 11.867188 -17.078125 10.6875 -16.578125 9.71875 -15.578125 C 8.75 -14.578125 8.265625 -13.207031 8.265625 -11.46875 C 8.265625 -9.71875 8.75 -8.328125 9.71875 -7.296875 C 10.6875 -6.273438 11.867188 -5.765625 13.265625 -5.765625 C 14.648438 -5.765625 15.828125 -6.269531 16.796875 -7.28125 C 17.773438 -8.289062 18.265625 -9.671875 18.265625 -11.421875 Z M 18.265625 -11.421875 "/></g></g><g style="fill:#faf3ff;fill-opacity:1;"><g transform="translate(255.037099, 326.593925)"><path style="stroke:none" d="M 9.53125 -19.03125 C 10.351562 -20.289062 11.378906 -21.28125 12.609375 -22 C 13.835938 -22.726562 15.203125 -23.09375 16.703125 -23.09375 L 16.703125 -15.671875 L 14.78125 -15.671875 C 13.03125 -15.671875 11.71875 -15.296875 10.84375 -14.546875 C 9.96875 -13.796875 9.53125 -12.484375 9.53125 -10.609375 L 9.53125 0 L 2.53125 0 L 2.53125 -22.84375 L 9.53125 -22.84375 Z M 9.53125 -19.03125 "/></g></g><g style="fill:#faf3ff;fill-opacity:1;"><g transform="translate(272.556653, 326.593925)"><path style="stroke:none" d="M 16.453125 -23.09375 C 19.128906 -23.09375 21.265625 -22.222656 22.859375 -20.484375 C 24.460938 -18.753906 25.265625 -16.375 25.265625 -13.34375 L 25.265625 0 L 18.296875 0 L 18.296875 -12.40625 C 18.296875 -13.9375 17.898438 -15.125 17.109375 -15.96875 C 16.316406 -16.8125 15.253906 -17.234375 13.921875 -17.234375 C 12.578125 -17.234375 11.507812 -16.8125 10.71875 -15.96875 C 9.925781 -15.125 9.53125 -13.9375 9.53125 -12.40625 L 9.53125 0 L 2.53125 0 L 2.53125 -22.84375 L 9.53125 -22.84375 L 9.53125 -19.8125 C 10.25 -20.820312 11.207031 -21.617188 12.40625 -22.203125 C 13.601562 -22.796875 14.953125 -23.09375 16.453125 -23.09375 Z M 16.453125 -23.09375 "/></g></g></g></svg>